<svg width="1280" height="720" viewBox="0 0 1280 720" fill="none" xmlns="http://www.w3.org/2000/svg">
<g clip-path="url(#clip0_5_289)">
<rect width="1280" height="720" rx="10" fill="white"/>
<path d="M430.535 111.231L404.716 66.3948C398.587 55.7519 385.028 52.1022 374.474 58.255L103.308 214.407L30.7 88.1893C24.5713 77.5464 11.0113 73.8967 0.457644 80.0495L-44.4914 105.934C-55.1342 112.062 -58.7839 125.622 -52.6551 136.265L56.8558 326.567C62.9845 337.21 76.5445 340.859 87.0981 334.706L422.282 141.538C432.949 135.32 436.599 121.76 430.535 111.231ZM115.774 127.925C119.792 135.034 128.892 137.484 135.935 133.352L371.484 -2.44103C378.528 -6.5726 380.953 -15.5829 376.911 -22.6026L347.465 -73.868C343.446 -80.9769 334.347 -83.4261 327.303 -79.2945L155.772 19.4825L119.676 -43.3315C115.658 -50.4405 106.558 -52.8896 99.5144 -48.758L48.225 -19.2227C41.1813 -15.0912 38.7561 -6.0809 42.7985 0.93883L115.774 127.925Z" fill="url(#paint0_linear_5_289)"/>
<path d="M727.535 838.231L701.716 793.395C695.587 782.752 682.028 779.102 671.474 785.255L400.308 941.407L327.7 815.189C321.571 804.546 308.011 800.897 297.458 807.049L252.509 832.934C241.866 839.062 238.216 852.622 244.345 863.265L353.856 1053.57C359.984 1064.21 373.544 1067.86 384.098 1061.71L719.282 868.538C729.949 862.32 733.599 848.76 727.535 838.231ZM412.774 854.925C416.792 862.034 425.892 864.484 432.935 860.352L668.484 724.559C675.528 720.427 677.953 711.417 673.911 704.397L644.465 653.132C640.446 646.023 631.347 643.574 624.303 647.705L452.772 746.482L416.676 683.668C412.658 676.56 403.558 674.11 396.514 678.242L345.225 707.777C338.181 711.909 335.756 720.919 339.798 727.939L412.774 854.925Z" fill="url(#paint1_linear_5_289)"/>
<path d="M850 10C850 4.47716 854.477 0 860 0H1270C1275.52 0 1280 4.47715 1280 10V710C1280 715.523 1275.52 720 1270 720H860C854.477 720 850 715.523 850 710V10Z" fill="url(#paint2_linear_5_289)" fill-opacity="0.9"/>
<path d="M56.0948 414L68.1377 374.587H79.2501L91.293 414H83.6293L72.9002 379.24H74.3234L63.7585 414H56.0948ZM63.3206 405.789V398.837H84.122V405.789H63.3206ZM116.343 414V400.041C116.343 399.366 116.307 398.508 116.234 397.468C116.161 396.41 115.933 395.352 115.549 394.293C115.166 393.235 114.537 392.35 113.661 391.638C112.803 390.927 111.581 390.571 109.993 390.571C109.355 390.571 108.67 390.671 107.941 390.872C107.211 391.073 106.526 391.465 105.888 392.049C105.249 392.615 104.72 393.454 104.3 394.567C103.899 395.68 103.698 397.158 103.698 399.001L99.4284 396.976C99.4284 394.64 99.9028 392.45 100.852 390.407C101.8 388.363 103.224 386.712 105.121 385.453C107.037 384.194 109.446 383.564 112.347 383.564C114.665 383.564 116.553 383.957 118.013 384.741C119.473 385.526 120.604 386.52 121.407 387.725C122.228 388.929 122.812 390.188 123.158 391.502C123.505 392.797 123.715 393.983 123.788 395.06C123.861 396.136 123.897 396.921 123.897 397.414V414H116.343ZM96.144 414V384.44H102.768V394.239H103.698V414H96.144ZM146.464 380.335H140.935L145.478 369.66H151.007L146.464 380.335ZM139.211 414.821C137.094 414.821 135.297 414.42 133.819 413.617C132.359 412.796 131.246 411.71 130.48 410.36C129.731 408.991 129.357 407.486 129.357 405.844C129.357 404.475 129.567 403.225 129.987 402.094C130.407 400.963 131.082 399.968 132.012 399.111C132.961 398.235 134.229 397.505 135.817 396.921C136.912 396.52 138.216 396.164 139.731 395.854C141.245 395.543 142.96 395.251 144.876 394.978C146.792 394.686 148.9 394.366 151.199 394.02L148.517 395.498C148.517 393.746 148.097 392.46 147.258 391.638C146.418 390.817 145.013 390.407 143.043 390.407C141.948 390.407 140.807 390.671 139.621 391.201C138.435 391.73 137.605 392.669 137.131 394.02L130.397 391.885C131.146 389.44 132.551 387.451 134.612 385.918C136.674 384.385 139.484 383.619 143.043 383.619C145.652 383.619 147.969 384.02 149.995 384.823C152.02 385.626 153.553 387.013 154.593 388.984C155.177 390.078 155.523 391.173 155.633 392.268C155.742 393.363 155.797 394.585 155.797 395.936V414H149.283V407.924L150.214 409.183C148.772 411.172 147.212 412.613 145.533 413.507C143.873 414.383 141.765 414.821 139.211 414.821ZM140.798 408.964C142.167 408.964 143.316 408.727 144.247 408.252C145.196 407.76 145.944 407.203 146.491 406.583C147.057 405.962 147.44 405.442 147.641 405.023C148.024 404.22 148.243 403.289 148.298 402.231C148.371 401.154 148.407 400.26 148.407 399.548L150.597 400.096C148.389 400.461 146.601 400.771 145.232 401.026C143.864 401.264 142.76 401.483 141.92 401.683C141.081 401.884 140.342 402.103 139.703 402.34C138.973 402.632 138.38 402.952 137.924 403.298C137.486 403.627 137.158 403.992 136.939 404.393C136.738 404.794 136.638 405.242 136.638 405.734C136.638 406.409 136.802 406.993 137.131 407.486C137.477 407.96 137.961 408.325 138.581 408.581C139.202 408.836 139.941 408.964 140.798 408.964ZM163.461 414V373.766H170.906V414H163.461ZM179.659 380.335V373.766H187.104V380.335H179.659ZM179.659 414V384.44H187.104V414H179.659ZM206.859 414.821C203.137 414.821 200.126 413.982 197.827 412.303C195.546 410.606 194.159 408.216 193.667 405.132L201.276 403.982C201.586 405.369 202.27 406.455 203.329 407.24C204.405 408.024 205.764 408.416 207.407 408.416C208.757 408.416 209.797 408.161 210.527 407.65C211.257 407.121 211.622 406.391 211.622 405.46C211.622 404.877 211.476 404.411 211.184 404.065C210.892 403.7 210.235 403.344 209.213 402.997C208.21 402.65 206.64 402.194 204.505 401.629C202.097 401.008 200.172 400.315 198.73 399.548C197.289 398.782 196.249 397.87 195.61 396.811C194.971 395.735 194.652 394.439 194.652 392.925C194.652 391.027 195.136 389.385 196.103 387.998C197.07 386.593 198.429 385.517 200.181 384.769C201.951 384.002 204.031 383.619 206.421 383.619C208.739 383.619 210.792 383.975 212.58 384.686C214.368 385.398 215.809 386.411 216.904 387.725C218.017 389.038 218.702 390.589 218.957 392.377L211.348 393.746C211.22 392.651 210.746 391.784 209.925 391.146C209.104 390.507 207.991 390.133 206.586 390.024C205.217 389.932 204.113 390.115 203.274 390.571C202.453 391.027 202.042 391.684 202.042 392.542C202.042 393.053 202.215 393.481 202.562 393.828C202.927 394.175 203.666 394.531 204.779 394.896C205.91 395.26 207.626 395.735 209.925 396.319C212.169 396.903 213.966 397.587 215.317 398.372C216.685 399.138 217.68 400.069 218.3 401.163C218.92 402.24 219.231 403.545 219.231 405.077C219.231 408.106 218.136 410.487 215.946 412.221C213.757 413.954 210.728 414.821 206.859 414.821ZM238.985 414.821C235.956 414.821 233.283 414.173 230.966 412.878C228.667 411.564 226.86 409.767 225.546 407.486C224.251 405.187 223.603 402.559 223.603 399.603C223.603 396.374 224.242 393.564 225.519 391.173C226.796 388.783 228.557 386.931 230.801 385.617C233.046 384.285 235.628 383.619 238.547 383.619C241.649 383.619 244.286 384.349 246.457 385.809C248.629 387.268 250.234 389.321 251.274 391.967C252.315 394.613 252.679 397.724 252.369 401.3H245.007V398.563C245.007 395.552 244.523 393.39 243.556 392.076C242.607 390.744 241.047 390.078 238.876 390.078C236.339 390.078 234.469 390.854 233.265 392.405C232.079 393.938 231.486 396.209 231.486 399.22C231.486 401.975 232.079 404.11 233.265 405.625C234.469 407.121 236.23 407.869 238.547 407.869C240.007 407.869 241.257 407.55 242.297 406.911C243.337 406.272 244.131 405.351 244.678 404.147L252.123 406.282C251.01 408.982 249.249 411.081 246.84 412.577C244.45 414.073 241.832 414.821 238.985 414.821ZM229.187 401.3V395.771H248.784V401.3H229.187ZM281.496 414.821C278.778 414.821 276.396 414.137 274.353 412.768C272.309 411.4 270.712 409.539 269.563 407.185C268.432 404.831 267.866 402.176 267.866 399.22C267.866 396.209 268.441 393.536 269.59 391.201C270.758 388.847 272.391 386.995 274.49 385.644C276.588 384.294 279.051 383.619 281.88 383.619C284.69 383.619 287.053 384.303 288.968 385.672C290.884 387.04 292.335 388.901 293.32 391.255C294.306 393.609 294.798 396.264 294.798 399.22C294.798 402.176 294.297 404.831 293.293 407.185C292.308 409.539 290.83 411.4 288.859 412.768C286.888 414.137 284.434 414.821 281.496 414.821ZM282.701 408.197C284.361 408.197 285.684 407.823 286.669 407.075C287.673 406.327 288.394 405.278 288.832 403.928C289.27 402.577 289.488 401.008 289.488 399.22C289.488 397.432 289.27 395.863 288.832 394.512C288.394 393.162 287.691 392.113 286.724 391.365C285.775 390.617 284.525 390.243 282.974 390.243C281.314 390.243 279.945 390.653 278.869 391.474C277.81 392.277 277.026 393.363 276.515 394.731C276.004 396.082 275.749 397.578 275.749 399.22C275.749 400.881 275.995 402.395 276.488 403.764C276.98 405.114 277.738 406.19 278.759 406.993C279.781 407.796 281.095 408.197 282.701 408.197ZM289.488 414V393.746H288.558V374.587H296.057V414H289.488ZM317.461 414.821C314.432 414.821 311.759 414.173 309.441 412.878C307.142 411.564 305.336 409.767 304.022 407.486C302.727 405.187 302.079 402.559 302.079 399.603C302.079 396.374 302.717 393.564 303.995 391.173C305.272 388.783 307.033 386.931 309.277 385.617C311.522 384.285 314.103 383.619 317.023 383.619C320.125 383.619 322.762 384.349 324.933 385.809C327.104 387.268 328.71 389.321 329.75 391.967C330.79 394.613 331.155 397.724 330.845 401.3H323.482V398.563C323.482 395.552 322.999 393.39 322.032 392.076C321.083 390.744 319.523 390.078 317.351 390.078C314.815 390.078 312.945 390.854 311.741 392.405C310.554 393.938 309.961 396.209 309.961 399.22C309.961 401.975 310.554 404.11 311.741 405.625C312.945 407.121 314.706 407.869 317.023 407.869C318.483 407.869 319.733 407.55 320.773 406.911C321.813 406.272 322.607 405.351 323.154 404.147L330.599 406.282C329.486 408.982 327.725 411.081 325.316 412.577C322.926 414.073 320.307 414.821 317.461 414.821ZM307.662 401.3V395.771H327.259V401.3H307.662ZM347.984 414V374.587H360.738C361.049 374.587 361.687 374.596 362.654 374.614C363.621 374.632 364.552 374.696 365.446 374.806C368.621 375.189 371.313 376.293 373.52 378.118C375.728 379.942 377.407 382.26 378.557 385.07C379.706 387.88 380.281 390.954 380.281 394.293C380.281 397.633 379.706 400.707 378.557 403.517C377.407 406.327 375.728 408.645 373.52 410.469C371.313 412.294 368.621 413.398 365.446 413.781C364.552 413.891 363.621 413.954 362.654 413.973C361.687 413.991 361.049 414 360.738 414H347.984ZM355.538 406.993H360.738C361.231 406.993 361.897 406.984 362.736 406.966C363.576 406.929 364.333 406.847 365.008 406.72C366.723 406.373 368.119 405.57 369.196 404.311C370.291 403.052 371.094 401.537 371.604 399.767C372.134 397.998 372.398 396.173 372.398 394.293C372.398 392.323 372.125 390.452 371.577 388.682C371.048 386.913 370.236 385.416 369.141 384.194C368.046 382.971 366.669 382.196 365.008 381.867C364.333 381.721 363.576 381.639 362.736 381.621C361.897 381.603 361.231 381.594 360.738 381.594H355.538V406.993ZM400.587 414.821C397.558 414.821 394.885 414.173 392.568 412.878C390.269 411.564 388.462 409.767 387.149 407.486C385.853 405.187 385.205 402.559 385.205 399.603C385.205 396.374 385.844 393.564 387.121 391.173C388.399 388.783 390.159 386.931 392.404 385.617C394.648 384.285 397.23 383.619 400.15 383.619C403.251 383.619 405.888 384.349 408.06 385.809C410.231 387.268 411.837 389.321 412.877 391.967C413.917 394.613 414.282 397.724 413.972 401.3H406.609V398.563C406.609 395.552 406.125 393.39 405.158 392.076C404.209 390.744 402.649 390.078 400.478 390.078C397.942 390.078 396.071 390.854 394.867 392.405C393.681 393.938 393.088 396.209 393.088 399.22C393.088 401.975 393.681 404.11 394.867 405.625C396.071 407.121 397.832 407.869 400.15 407.869C401.609 407.869 402.859 407.55 403.899 406.911C404.939 406.272 405.733 405.351 406.28 404.147L413.725 406.282C412.612 408.982 410.851 411.081 408.443 412.577C406.052 414.073 403.434 414.821 400.587 414.821ZM390.789 401.3V395.771H410.386V401.3H390.789ZM431.702 414.821C427.98 414.821 424.969 413.982 422.67 412.303C420.389 410.606 419.002 408.216 418.509 405.132L426.118 403.982C426.429 405.369 427.113 406.455 428.171 407.24C429.248 408.024 430.607 408.416 432.249 408.416C433.6 408.416 434.64 408.161 435.37 407.65C436.099 407.121 436.464 406.391 436.464 405.46C436.464 404.877 436.318 404.411 436.026 404.065C435.734 403.7 435.078 403.344 434.056 402.997C433.052 402.65 431.483 402.194 429.348 401.629C426.939 401.008 425.014 400.315 423.573 399.548C422.131 398.782 421.091 397.87 420.453 396.811C419.814 395.735 419.495 394.439 419.495 392.925C419.495 391.027 419.978 389.385 420.945 387.998C421.912 386.593 423.272 385.517 425.024 384.769C426.793 384.002 428.874 383.619 431.264 383.619C433.581 383.619 435.634 383.975 437.422 384.686C439.21 385.398 440.652 386.411 441.747 387.725C442.86 389.038 443.544 390.589 443.8 392.377L436.191 393.746C436.063 392.651 435.588 391.784 434.767 391.146C433.946 390.507 432.833 390.133 431.428 390.024C430.06 389.932 428.956 390.115 428.116 390.571C427.295 391.027 426.885 391.684 426.885 392.542C426.885 393.053 427.058 393.481 427.405 393.828C427.77 394.175 428.509 394.531 429.622 394.896C430.753 395.26 432.468 395.735 434.767 396.319C437.012 396.903 438.809 397.587 440.159 398.372C441.528 399.138 442.522 400.069 443.143 401.163C443.763 402.24 444.073 403.545 444.073 405.077C444.073 408.106 442.978 410.487 440.789 412.221C438.599 413.954 435.57 414.821 431.702 414.821ZM463.828 414.821C460.799 414.821 458.126 414.173 455.808 412.878C453.509 411.564 451.703 409.767 450.389 407.486C449.093 405.187 448.446 402.559 448.446 399.603C448.446 396.374 449.084 393.564 450.362 391.173C451.639 388.783 453.4 386.931 455.644 385.617C457.888 384.285 460.47 383.619 463.39 383.619C466.492 383.619 469.128 384.349 471.3 385.809C473.471 387.268 475.077 389.321 476.117 391.967C477.157 394.613 477.522 397.724 477.212 401.3H469.849V398.563C469.849 395.552 469.366 393.39 468.399 392.076C467.45 390.744 465.89 390.078 463.718 390.078C461.182 390.078 459.312 390.854 458.107 392.405C456.921 393.938 456.328 396.209 456.328 399.22C456.328 401.975 456.921 404.11 458.107 405.625C459.312 407.121 461.072 407.869 463.39 407.869C464.85 407.869 466.099 407.55 467.14 406.911C468.18 406.272 468.973 405.351 469.521 404.147L476.966 406.282C475.852 408.982 474.092 411.081 471.683 412.577C469.293 414.073 466.674 414.821 463.828 414.821ZM454.029 401.3V395.771H473.626V401.3H454.029ZM518.171 414V396.538C518.171 394.585 517.706 393.071 516.776 391.994C515.863 390.899 514.595 390.352 512.971 390.352C511.931 390.352 511.028 390.598 510.261 391.091C509.495 391.565 508.893 392.241 508.455 393.116C508.035 393.974 507.826 394.969 507.826 396.1L504.705 394.02C504.705 391.994 505.18 390.206 506.129 388.655C507.096 387.104 508.382 385.9 509.988 385.042C511.612 384.166 513.409 383.728 515.38 383.728C518.755 383.728 521.301 384.732 523.016 386.739C524.749 388.728 525.616 391.337 525.616 394.567V414H518.171ZM482.535 414V384.44H489.104V394.239H490.035V414H482.535ZM500.381 414V396.538C500.381 394.585 499.915 393.071 498.985 391.994C498.073 390.899 496.804 390.352 495.18 390.352C493.629 390.352 492.38 390.89 491.431 391.967C490.5 393.025 490.035 394.403 490.035 396.1L486.915 393.91C486.915 391.976 487.398 390.243 488.365 388.71C489.332 387.177 490.628 385.964 492.252 385.07C493.894 384.176 495.728 383.728 497.753 383.728C500.071 383.728 501.968 384.221 503.446 385.206C504.943 386.192 506.046 387.506 506.758 389.148C507.47 390.79 507.826 392.596 507.826 394.567V414H500.381ZM547.24 414.821C544.302 414.821 541.848 414.137 539.877 412.768C537.906 411.4 536.419 409.539 535.416 407.185C534.43 404.831 533.938 402.176 533.938 399.22C533.938 396.264 534.43 393.609 535.416 391.255C536.401 388.901 537.852 387.04 539.767 385.672C541.683 384.303 544.046 383.619 546.856 383.619C549.685 383.619 552.148 384.294 554.246 385.644C556.345 386.995 557.969 388.847 559.118 391.201C560.286 393.536 560.87 396.209 560.87 399.22C560.87 402.176 560.295 404.831 559.146 407.185C558.014 409.539 556.427 411.4 554.383 412.768C552.34 414.137 549.958 414.821 547.24 414.821ZM532.679 427.138V384.44H539.247V404.694H540.178V427.138H532.679ZM546.035 408.197C547.641 408.197 548.955 407.796 549.977 406.993C550.998 406.19 551.756 405.114 552.248 403.764C552.741 402.395 552.987 400.881 552.987 399.22C552.987 397.578 552.732 396.082 552.221 394.731C551.71 393.363 550.916 392.277 549.84 391.474C548.781 390.653 547.422 390.243 545.762 390.243C544.211 390.243 542.952 390.617 541.984 391.365C541.036 392.113 540.342 393.162 539.904 394.512C539.466 395.863 539.247 397.432 539.247 399.22C539.247 401.008 539.466 402.577 539.904 403.928C540.342 405.278 541.054 406.327 542.039 407.075C543.043 407.823 544.375 408.197 546.035 408.197ZM580.633 414.821C577.604 414.821 574.93 414.173 572.613 412.878C570.314 411.564 568.508 409.767 567.194 407.486C565.898 405.187 565.251 402.559 565.251 399.603C565.251 396.374 565.889 393.564 567.166 391.173C568.444 388.783 570.205 386.931 572.449 385.617C574.693 384.285 577.275 383.619 580.195 383.619C583.297 383.619 585.933 384.349 588.105 385.809C590.276 387.268 591.882 389.321 592.922 391.967C593.962 394.613 594.327 397.724 594.017 401.3H586.654V398.563C586.654 395.552 586.171 393.39 585.203 392.076C584.255 390.744 582.694 390.078 580.523 390.078C577.987 390.078 576.117 390.854 574.912 392.405C573.726 393.938 573.133 396.209 573.133 399.22C573.133 401.975 573.726 404.11 574.912 405.625C576.117 407.121 577.877 407.869 580.195 407.869C581.654 407.869 582.904 407.55 583.944 406.911C584.984 406.272 585.778 405.351 586.326 404.147L593.77 406.282C592.657 408.982 590.896 411.081 588.488 412.577C586.098 414.073 583.479 414.821 580.633 414.821ZM570.834 401.3V395.771H590.431V401.3H570.834ZM619.539 414V400.041C619.539 399.366 619.503 398.508 619.43 397.468C619.357 396.41 619.129 395.352 618.746 394.293C618.363 393.235 617.733 392.35 616.857 391.638C616 390.927 614.777 390.571 613.19 390.571C612.551 390.571 611.867 390.671 611.137 390.872C610.407 391.073 609.723 391.465 609.084 392.049C608.445 392.615 607.916 393.454 607.497 394.567C607.095 395.68 606.894 397.158 606.894 399.001L602.625 396.976C602.625 394.64 603.099 392.45 604.048 390.407C604.997 388.363 606.42 386.712 608.318 385.453C610.234 384.194 612.642 383.564 615.543 383.564C617.861 383.564 619.749 383.957 621.209 384.741C622.669 385.526 623.8 386.52 624.603 387.725C625.424 388.929 626.008 390.188 626.355 391.502C626.701 392.797 626.911 393.983 626.984 395.06C627.057 396.136 627.094 396.921 627.094 397.414V414H619.539ZM599.34 414V384.44H605.964V394.239H606.894V414H599.34ZM654.34 414V400.041C654.34 399.366 654.304 398.508 654.231 397.468C654.158 396.41 653.93 395.352 653.547 394.293C653.163 393.235 652.534 392.35 651.658 391.638C650.8 390.927 649.578 390.571 647.99 390.571C647.352 390.571 646.668 390.671 645.938 390.872C645.208 391.073 644.524 391.465 643.885 392.049C643.246 392.615 642.717 393.454 642.297 394.567C641.896 395.68 641.695 397.158 641.695 399.001L637.425 396.976C637.425 394.64 637.9 392.45 638.849 390.407C639.798 388.363 641.221 386.712 643.119 385.453C645.034 384.194 647.443 383.564 650.344 383.564C652.662 383.564 654.55 383.957 656.01 384.741C657.47 385.526 658.601 386.52 659.404 387.725C660.225 388.929 660.809 390.188 661.156 391.502C661.502 392.797 661.712 393.983 661.785 395.06C661.858 396.136 661.895 396.921 661.895 397.414V414H654.34ZM634.141 414V374.587H640.765V394.841H641.695V414H634.141ZM682.299 414.821C679.324 414.821 676.715 414.155 674.471 412.823C672.226 411.491 670.475 409.657 669.216 407.322C667.975 404.968 667.354 402.267 667.354 399.22C667.354 396.136 667.993 393.427 669.27 391.091C670.548 388.737 672.309 386.903 674.553 385.59C676.797 384.276 679.379 383.619 682.299 383.619C685.273 383.619 687.882 384.285 690.127 385.617C692.389 386.949 694.15 388.792 695.409 391.146C696.668 393.481 697.298 396.173 697.298 399.22C697.298 402.286 696.659 404.995 695.382 407.349C694.123 409.685 692.362 411.518 690.099 412.85C687.855 414.164 685.255 414.821 682.299 414.821ZM682.299 407.869C684.689 407.869 686.468 407.066 687.636 405.46C688.822 403.837 689.415 401.756 689.415 399.22C689.415 396.592 688.813 394.494 687.608 392.925C686.422 391.356 684.652 390.571 682.299 390.571C680.675 390.571 679.343 390.936 678.303 391.666C677.263 392.396 676.487 393.408 675.976 394.704C675.483 395.999 675.237 397.505 675.237 399.22C675.237 401.866 675.83 403.973 677.016 405.543C678.22 407.094 679.981 407.869 682.299 407.869Z" fill="url(#paint3_linear_5_289)"/>
<path d="M59.9135 457L55.3931 443.957H57.1977L61.2536 455.856L60.3959 455.428H62.54L61.6288 455.856L65.363 443.957H67.114L62.9152 457H59.9135ZM72.6345 457.322C71.8007 457.322 71.08 457.179 70.4725 456.893C69.8651 456.607 69.3707 456.232 68.9896 455.767C68.6084 455.291 68.3225 454.761 68.1319 454.177C67.9533 453.593 67.8639 452.998 67.8639 452.39V452.069C67.8639 451.449 67.9533 450.848 68.1319 450.264C68.3225 449.68 68.6084 449.156 68.9896 448.692C69.3707 448.215 69.8531 447.84 70.4368 447.566C71.0324 447.28 71.7292 447.137 72.5273 447.137C73.5636 447.137 74.4153 447.364 75.0823 447.816C75.7613 448.257 76.2616 448.829 76.5832 449.531C76.9167 450.234 77.0835 450.985 77.0835 451.783V452.551H68.6143V451.265H75.8327L75.4397 451.961C75.4397 451.282 75.3325 450.699 75.118 450.21C74.9036 449.71 74.582 449.323 74.1532 449.049C73.7244 448.775 73.1824 448.638 72.5273 448.638C71.8483 448.638 71.2825 448.793 70.8299 449.103C70.3892 449.412 70.0556 449.835 69.8293 450.371C69.6149 450.907 69.5077 451.527 69.5077 452.229C69.5077 452.908 69.6149 453.522 69.8293 454.07C70.0556 454.606 70.4011 455.035 70.8656 455.356C71.3302 455.666 71.9198 455.821 72.6345 455.821C73.3849 455.821 73.9924 455.654 74.457 455.32C74.9334 454.987 75.2193 454.6 75.3146 454.159H76.9226C76.7916 454.814 76.5296 455.38 76.1365 455.856C75.7434 456.333 75.2491 456.696 74.6535 456.946C74.0579 457.197 73.3849 457.322 72.6345 457.322ZM79.5189 457V447.459H80.8768V451.55H80.6624C80.6624 450.609 80.7874 449.817 81.0376 449.174C81.2996 448.519 81.6927 448.025 82.2168 447.691C82.7409 447.346 83.402 447.173 84.2001 447.173H84.2716C85.4746 447.173 86.362 447.548 86.9338 448.299C87.5175 449.049 87.8093 450.133 87.8093 451.55V457H86.094V451.193C86.094 450.455 85.8856 449.865 85.4687 449.424C85.0518 448.972 84.48 448.745 83.7534 448.745C83.003 448.745 82.3955 448.978 81.9309 449.442C81.4664 449.907 81.2341 450.526 81.2341 451.3V457H79.5189ZM94.9321 457.322C94.2531 457.322 93.6278 457.197 93.056 456.946C92.4842 456.696 91.984 456.345 91.5551 455.892C91.1382 455.44 90.8107 454.915 90.5724 454.32C90.3461 453.724 90.233 453.081 90.233 452.39V452.069C90.233 451.39 90.3461 450.752 90.5724 450.157C90.7988 449.561 91.1144 449.037 91.5194 448.584C91.9363 448.132 92.4247 447.78 92.9845 447.53C93.5563 447.268 94.1876 447.137 94.8785 447.137C95.6051 447.137 96.2662 447.292 96.8617 447.602C97.4573 447.9 97.9457 448.37 98.3269 449.013C98.708 449.657 98.9224 450.49 98.9701 451.515L98.2554 450.371V443.957H99.9707V457H98.6127V452.765H99.113C99.0654 453.849 98.8391 454.731 98.4341 455.41C98.0291 456.077 97.5169 456.565 96.8975 456.875C96.29 457.173 95.6349 457.322 94.9321 457.322ZM95.1643 455.821C95.748 455.821 96.2781 455.69 96.7545 455.428C97.231 455.166 97.6122 454.79 97.898 454.302C98.1839 453.802 98.3269 453.218 98.3269 452.551V451.729C98.3269 451.074 98.178 450.52 97.8802 450.067C97.5943 449.603 97.2072 449.252 96.7188 449.013C96.2423 448.763 95.7182 448.638 95.1465 448.638C94.5152 448.638 93.9553 448.787 93.4669 449.085C92.9905 449.383 92.6153 449.799 92.3413 450.335C92.0793 450.872 91.9482 451.503 91.9482 452.229C91.9482 452.956 92.0852 453.593 92.3592 454.141C92.6331 454.677 93.0143 455.094 93.5027 455.392C93.9911 455.678 94.5449 455.821 95.1643 455.821ZM109.037 457V454.141H108.752V450.836C108.752 450.181 108.579 449.686 108.233 449.353C107.9 449.019 107.406 448.853 106.75 448.853C106.381 448.853 106 448.858 105.607 448.87C105.214 448.882 104.839 448.894 104.481 448.906C104.124 448.918 103.814 448.936 103.552 448.96V447.459C103.814 447.435 104.088 447.417 104.374 447.405C104.672 447.381 104.976 447.37 105.285 447.37C105.595 447.358 105.893 447.352 106.179 447.352C107.155 447.352 107.954 447.471 108.573 447.709C109.192 447.935 109.651 448.311 109.949 448.835C110.247 449.359 110.395 450.067 110.395 450.961V457H109.037ZM105.911 457.25C105.196 457.25 104.577 457.131 104.053 456.893C103.54 456.643 103.141 456.285 102.855 455.821C102.581 455.356 102.444 454.796 102.444 454.141C102.444 453.462 102.593 452.896 102.891 452.444C103.201 451.991 103.648 451.652 104.231 451.425C104.815 451.187 105.518 451.068 106.34 451.068H108.93V452.354H106.268C105.577 452.354 105.047 452.521 104.678 452.855C104.309 453.188 104.124 453.617 104.124 454.141C104.124 454.665 104.309 455.088 104.678 455.41C105.047 455.731 105.577 455.892 106.268 455.892C106.673 455.892 107.06 455.821 107.429 455.678C107.799 455.523 108.102 455.273 108.341 454.927C108.591 454.57 108.728 454.082 108.752 453.462L109.216 454.141C109.157 454.82 108.99 455.392 108.716 455.856C108.454 456.309 108.085 456.655 107.608 456.893C107.144 457.131 106.578 457.25 105.911 457.25ZM116.67 457.286C115.42 457.286 114.449 457.018 113.758 456.482C113.079 455.946 112.728 455.213 112.704 454.284H114.312C114.336 454.653 114.52 455.005 114.866 455.338C115.223 455.66 115.825 455.821 116.67 455.821C117.433 455.821 118.016 455.672 118.421 455.374C118.826 455.064 119.029 454.689 119.029 454.248C119.029 453.855 118.88 453.552 118.582 453.337C118.284 453.111 117.802 452.962 117.135 452.891L116.099 452.783C115.193 452.688 114.455 452.42 113.883 451.979C113.311 451.527 113.025 450.895 113.025 450.085C113.025 449.478 113.18 448.96 113.49 448.531C113.8 448.09 114.228 447.757 114.776 447.53C115.324 447.292 115.956 447.173 116.67 447.173C117.742 447.173 118.612 447.411 119.279 447.888C119.946 448.364 120.291 449.073 120.315 450.014H118.707C118.695 449.633 118.517 449.311 118.171 449.049C117.838 448.775 117.337 448.638 116.67 448.638C116.003 448.638 115.497 448.775 115.152 449.049C114.806 449.323 114.633 449.668 114.633 450.085C114.633 450.443 114.753 450.729 114.991 450.943C115.241 451.157 115.646 451.294 116.206 451.354L117.242 451.461C118.266 451.568 119.088 451.854 119.708 452.319C120.327 452.771 120.637 453.415 120.637 454.248C120.637 454.844 120.464 455.374 120.119 455.839C119.785 456.291 119.321 456.649 118.725 456.911C118.129 457.161 117.445 457.286 116.67 457.286ZM131.173 457.322C130.494 457.322 129.868 457.197 129.297 456.946C128.725 456.696 128.225 456.345 127.796 455.892C127.379 455.44 127.051 454.915 126.813 454.32C126.587 453.724 126.474 453.081 126.474 452.39V452.069C126.474 451.39 126.587 450.752 126.813 450.157C127.039 449.561 127.355 449.037 127.76 448.584C128.177 448.132 128.665 447.78 129.225 447.53C129.797 447.268 130.428 447.137 131.119 447.137C131.846 447.137 132.507 447.292 133.102 447.602C133.698 447.9 134.186 448.37 134.568 449.013C134.949 449.657 135.163 450.49 135.211 451.515L134.496 450.371V443.957H136.211V457H134.853V452.765H135.354C135.306 453.849 135.08 454.731 134.675 455.41C134.27 456.077 133.758 456.565 133.138 456.875C132.531 457.173 131.876 457.322 131.173 457.322ZM131.405 455.821C131.989 455.821 132.519 455.69 132.995 455.428C133.472 455.166 133.853 454.79 134.139 454.302C134.425 453.802 134.568 453.218 134.568 452.551V451.729C134.568 451.074 134.419 450.52 134.121 450.067C133.835 449.603 133.448 449.252 132.959 449.013C132.483 448.763 131.959 448.638 131.387 448.638C130.756 448.638 130.196 448.787 129.708 449.085C129.231 449.383 128.856 449.799 128.582 450.335C128.32 450.872 128.189 451.503 128.189 452.229C128.189 452.956 128.326 453.593 128.6 454.141C128.874 454.677 129.255 455.094 129.743 455.392C130.232 455.678 130.786 455.821 131.405 455.821ZM145.278 457V454.141H144.992V450.836C144.992 450.181 144.82 449.686 144.474 449.353C144.141 449.019 143.646 448.853 142.991 448.853C142.622 448.853 142.241 448.858 141.848 448.87C141.455 448.882 141.079 448.894 140.722 448.906C140.365 448.918 140.055 448.936 139.793 448.96V447.459C140.055 447.435 140.329 447.417 140.615 447.405C140.913 447.381 141.216 447.37 141.526 447.37C141.836 447.358 142.133 447.352 142.419 447.352C143.396 447.352 144.194 447.471 144.814 447.709C145.433 447.935 145.892 448.311 146.189 448.835C146.487 449.359 146.636 450.067 146.636 450.961V457H145.278ZM142.151 457.25C141.437 457.25 140.817 457.131 140.293 456.893C139.781 456.643 139.382 456.285 139.096 455.821C138.822 455.356 138.685 454.796 138.685 454.141C138.685 453.462 138.834 452.896 139.132 452.444C139.441 451.991 139.888 451.652 140.472 451.425C141.055 451.187 141.758 451.068 142.58 451.068H145.171V452.354H142.509C141.818 452.354 141.288 452.521 140.919 452.855C140.549 453.188 140.365 453.617 140.365 454.141C140.365 454.665 140.549 455.088 140.919 455.41C141.288 455.731 141.818 455.892 142.509 455.892C142.914 455.892 143.301 455.821 143.67 455.678C144.039 455.523 144.343 455.273 144.581 454.927C144.831 454.57 144.968 454.082 144.992 453.462L145.457 454.141C145.397 454.82 145.23 455.392 144.957 455.856C144.694 456.309 144.325 456.655 143.849 456.893C143.384 457.131 142.818 457.25 142.151 457.25ZM152.911 457.286C151.66 457.286 150.689 457.018 149.999 456.482C149.32 455.946 148.968 455.213 148.944 454.284H150.552C150.576 454.653 150.761 455.005 151.106 455.338C151.464 455.66 152.065 455.821 152.911 455.821C153.673 455.821 154.257 455.672 154.662 455.374C155.067 455.064 155.269 454.689 155.269 454.248C155.269 453.855 155.121 453.552 154.823 453.337C154.525 453.111 154.043 452.962 153.376 452.891L152.339 452.783C151.434 452.688 150.695 452.42 150.124 451.979C149.552 451.527 149.266 450.895 149.266 450.085C149.266 449.478 149.421 448.96 149.731 448.531C150.04 448.09 150.469 447.757 151.017 447.53C151.565 447.292 152.196 447.173 152.911 447.173C153.983 447.173 154.853 447.411 155.52 447.888C156.187 448.364 156.532 449.073 156.556 450.014H154.948C154.936 449.633 154.757 449.311 154.412 449.049C154.078 448.775 153.578 448.638 152.911 448.638C152.244 448.638 151.738 448.775 151.392 449.049C151.047 449.323 150.874 449.668 150.874 450.085C150.874 450.443 150.993 450.729 151.231 450.943C151.482 451.157 151.887 451.294 152.446 451.354L153.483 451.461C154.507 451.568 155.329 451.854 155.948 452.319C156.568 452.771 156.878 453.415 156.878 454.248C156.878 454.844 156.705 455.374 156.359 455.839C156.026 456.291 155.561 456.649 154.966 456.911C154.37 457.161 153.685 457.286 152.911 457.286ZM163.679 457V443.957H165.43V457H163.679ZM165.073 457V455.428H171.04V457H165.073ZM177.473 457.322C176.64 457.322 175.907 457.179 175.276 456.893C174.644 456.607 174.108 456.232 173.668 455.767C173.239 455.291 172.911 454.761 172.685 454.177C172.471 453.593 172.363 452.998 172.363 452.39V452.069C172.363 451.461 172.476 450.866 172.703 450.282C172.929 449.686 173.263 449.156 173.703 448.692C174.144 448.215 174.68 447.84 175.311 447.566C175.943 447.28 176.663 447.137 177.473 447.137C178.283 447.137 179.004 447.28 179.635 447.566C180.267 447.84 180.803 448.215 181.243 448.692C181.684 449.156 182.018 449.686 182.244 450.282C182.47 450.866 182.583 451.461 182.583 452.069V452.39C182.583 452.998 182.47 453.593 182.244 454.177C182.03 454.761 181.702 455.291 181.261 455.767C180.832 456.232 180.302 456.607 179.671 456.893C179.04 457.179 178.307 457.322 177.473 457.322ZM177.473 455.785C178.188 455.785 178.796 455.63 179.296 455.32C179.808 454.999 180.195 454.57 180.457 454.034C180.731 453.498 180.868 452.896 180.868 452.229C180.868 451.55 180.731 450.943 180.457 450.407C180.183 449.871 179.79 449.448 179.278 449.138C178.778 448.829 178.176 448.674 177.473 448.674C176.783 448.674 176.181 448.829 175.669 449.138C175.157 449.448 174.764 449.871 174.49 450.407C174.216 450.943 174.079 451.55 174.079 452.229C174.079 452.896 174.21 453.498 174.472 454.034C174.746 454.57 175.133 454.999 175.633 455.32C176.145 455.63 176.759 455.785 177.473 455.785ZM183.473 460.645V459.108H184.473C184.926 459.108 185.272 458.983 185.51 458.733C185.76 458.483 185.885 458.138 185.885 457.697V447.459H187.529V457.447C187.529 458.245 187.416 458.876 187.189 459.341C186.975 459.805 186.623 460.139 186.135 460.341C185.659 460.544 185.021 460.645 184.223 460.645H183.473ZM184.384 448.817V447.459H187.529V448.817H184.384ZM186.296 445.779C185.915 445.779 185.629 445.678 185.438 445.476C185.26 445.273 185.17 445.017 185.17 444.707C185.17 444.398 185.26 444.141 185.438 443.939C185.629 443.736 185.915 443.635 186.296 443.635C186.677 443.635 186.957 443.736 187.136 443.939C187.326 444.141 187.422 444.398 187.422 444.707C187.422 445.017 187.326 445.273 187.136 445.476C186.957 445.678 186.677 445.779 186.296 445.779ZM196.594 457V454.141H196.308V450.836C196.308 450.181 196.136 449.686 195.79 449.353C195.457 449.019 194.962 448.853 194.307 448.853C193.938 448.853 193.557 448.858 193.164 448.87C192.771 448.882 192.396 448.894 192.038 448.906C191.681 448.918 191.371 448.936 191.109 448.96V447.459C191.371 447.435 191.645 447.417 191.931 447.405C192.229 447.381 192.533 447.37 192.842 447.37C193.152 447.358 193.45 447.352 193.736 447.352C194.712 447.352 195.51 447.471 196.13 447.709C196.749 447.935 197.208 448.311 197.506 448.835C197.803 449.359 197.952 450.067 197.952 450.961V457H196.594ZM193.468 457.25C192.753 457.25 192.133 457.131 191.609 456.893C191.097 456.643 190.698 456.285 190.412 455.821C190.138 455.356 190.001 454.796 190.001 454.141C190.001 453.462 190.15 452.896 190.448 452.444C190.758 451.991 191.204 451.652 191.788 451.425C192.372 451.187 193.074 451.068 193.896 451.068H196.487V452.354H193.825C193.134 452.354 192.604 452.521 192.235 452.855C191.865 453.188 191.681 453.617 191.681 454.141C191.681 454.665 191.865 455.088 192.235 455.41C192.604 455.731 193.134 455.892 193.825 455.892C194.23 455.892 194.617 455.821 194.986 455.678C195.356 455.523 195.659 455.273 195.898 454.927C196.148 454.57 196.285 454.082 196.308 453.462L196.773 454.141C196.713 454.82 196.547 455.392 196.273 455.856C196.011 456.309 195.641 456.655 195.165 456.893C194.7 457.131 194.135 457.25 193.468 457.25ZM204.227 457.286C202.976 457.286 202.006 457.018 201.315 456.482C200.636 455.946 200.284 455.213 200.261 454.284H201.869C201.893 454.653 202.077 455.005 202.423 455.338C202.78 455.66 203.381 455.821 204.227 455.821C204.99 455.821 205.573 455.672 205.978 455.374C206.383 455.064 206.586 454.689 206.586 454.248C206.586 453.855 206.437 453.552 206.139 453.337C205.841 453.111 205.359 452.962 204.692 452.891L203.655 452.783C202.75 452.688 202.012 452.42 201.44 451.979C200.868 451.527 200.582 450.895 200.582 450.085C200.582 449.478 200.737 448.96 201.047 448.531C201.356 448.09 201.785 447.757 202.333 447.53C202.881 447.292 203.512 447.173 204.227 447.173C205.299 447.173 206.169 447.411 206.836 447.888C207.503 448.364 207.848 449.073 207.872 450.014H206.264C206.252 449.633 206.073 449.311 205.728 449.049C205.395 448.775 204.894 448.638 204.227 448.638C203.56 448.638 203.054 448.775 202.708 449.049C202.363 449.323 202.19 449.668 202.19 450.085C202.19 450.443 202.309 450.729 202.548 450.943C202.798 451.157 203.203 451.294 203.763 451.354L204.799 451.461C205.823 451.568 206.645 451.854 207.265 452.319C207.884 452.771 208.194 453.415 208.194 454.248C208.194 454.844 208.021 455.374 207.676 455.839C207.342 456.291 206.877 456.649 206.282 456.911C205.686 457.161 205.001 457.286 204.227 457.286ZM218.015 457L213.494 443.957H215.299L219.355 455.856L218.497 455.428H220.641L219.73 455.856L223.464 443.957H225.215L221.017 457H218.015ZM232.765 457V454.141H232.479V450.836C232.479 450.181 232.307 449.686 231.961 449.353C231.628 449.019 231.133 448.853 230.478 448.853C230.109 448.853 229.728 448.858 229.335 448.87C228.942 448.882 228.566 448.894 228.209 448.906C227.852 448.918 227.542 448.936 227.28 448.96V447.459C227.542 447.435 227.816 447.417 228.102 447.405C228.4 447.381 228.703 447.37 229.013 447.37C229.323 447.358 229.621 447.352 229.906 447.352C230.883 447.352 231.681 447.471 232.301 447.709C232.92 447.935 233.379 448.311 233.676 448.835C233.974 449.359 234.123 450.067 234.123 450.961V457H232.765ZM229.638 457.25C228.924 457.25 228.304 457.131 227.78 456.893C227.268 456.643 226.869 456.285 226.583 455.821C226.309 455.356 226.172 454.796 226.172 454.141C226.172 453.462 226.321 452.896 226.619 452.444C226.929 451.991 227.375 451.652 227.959 451.425C228.543 451.187 229.245 451.068 230.067 451.068H232.658V452.354H229.996C229.305 452.354 228.775 452.521 228.406 452.855C228.036 453.188 227.852 453.617 227.852 454.141C227.852 454.665 228.036 455.088 228.406 455.41C228.775 455.731 229.305 455.892 229.996 455.892C230.401 455.892 230.788 455.821 231.157 455.678C231.526 455.523 231.83 455.273 232.068 454.927C232.319 454.57 232.456 454.082 232.479 453.462L232.944 454.141C232.884 454.82 232.718 455.392 232.444 455.856C232.182 456.309 231.812 456.655 231.336 456.893C230.871 457.131 230.305 457.25 229.638 457.25ZM237.271 457V447.459H238.629V451.39H238.558C238.558 449.996 238.861 448.978 239.469 448.334C240.088 447.679 241.011 447.352 242.238 447.352H242.56V448.888H241.953C241 448.888 240.267 449.144 239.755 449.657C239.243 450.157 238.987 450.883 238.987 451.836V457H237.271ZM248.551 457.322C247.717 457.322 246.996 457.179 246.389 456.893C245.781 456.607 245.287 456.232 244.906 455.767C244.525 455.291 244.239 454.761 244.048 454.177C243.87 453.593 243.78 452.998 243.78 452.39V452.069C243.78 451.449 243.87 450.848 244.048 450.264C244.239 449.68 244.525 449.156 244.906 448.692C245.287 448.215 245.769 447.84 246.353 447.566C246.949 447.28 247.646 447.137 248.444 447.137C249.48 447.137 250.332 447.364 250.999 447.816C251.678 448.257 252.178 448.829 252.5 449.531C252.833 450.234 253 450.985 253 451.783V452.551H244.531V451.265H251.749L251.356 451.961C251.356 451.282 251.249 450.699 251.034 450.21C250.82 449.71 250.498 449.323 250.07 449.049C249.641 448.775 249.099 448.638 248.444 448.638C247.765 448.638 247.199 448.793 246.746 449.103C246.306 449.412 245.972 449.835 245.746 450.371C245.531 450.907 245.424 451.527 245.424 452.229C245.424 452.908 245.531 453.522 245.746 454.07C245.972 454.606 246.317 455.035 246.782 455.356C247.247 455.666 247.836 455.821 248.551 455.821C249.301 455.821 249.909 455.654 250.373 455.32C250.85 454.987 251.136 454.6 251.231 454.159H252.839C252.708 454.814 252.446 455.38 252.053 455.856C251.66 456.333 251.165 456.696 250.57 456.946C249.974 457.197 249.301 457.322 248.551 457.322ZM253.756 460.645V459.108H254.756C255.209 459.108 255.554 458.983 255.793 458.733C256.043 458.483 256.168 458.138 256.168 457.697V447.459H257.812V457.447C257.812 458.245 257.698 458.876 257.472 459.341C257.258 459.805 256.906 460.139 256.418 460.341C255.941 460.544 255.304 460.645 254.506 460.645H253.756ZM254.667 448.817V447.459H257.812V448.817H254.667ZM256.579 445.779C256.198 445.779 255.912 445.678 255.721 445.476C255.542 445.273 255.453 445.017 255.453 444.707C255.453 444.398 255.542 444.141 255.721 443.939C255.912 443.736 256.198 443.635 256.579 443.635C256.96 443.635 257.24 443.736 257.418 443.939C257.609 444.141 257.704 444.398 257.704 444.707C257.704 445.017 257.609 445.273 257.418 445.476C257.24 445.678 256.96 445.779 256.579 445.779ZM265.501 457.322C264.668 457.322 263.935 457.179 263.304 456.893C262.672 456.607 262.136 456.232 261.696 455.767C261.267 455.291 260.939 454.761 260.713 454.177C260.499 453.593 260.391 452.998 260.391 452.39V452.069C260.391 451.461 260.504 450.866 260.731 450.282C260.957 449.686 261.291 449.156 261.731 448.692C262.172 448.215 262.708 447.84 263.339 447.566C263.971 447.28 264.691 447.137 265.501 447.137C266.311 447.137 267.032 447.28 267.663 447.566C268.295 447.84 268.831 448.215 269.271 448.692C269.712 449.156 270.046 449.686 270.272 450.282C270.498 450.866 270.611 451.461 270.611 452.069V452.39C270.611 452.998 270.498 453.593 270.272 454.177C270.058 454.761 269.73 455.291 269.289 455.767C268.86 456.232 268.33 456.607 267.699 456.893C267.068 457.179 266.335 457.322 265.501 457.322ZM265.501 455.785C266.216 455.785 266.824 455.63 267.324 455.32C267.836 454.999 268.223 454.57 268.485 454.034C268.759 453.498 268.896 452.896 268.896 452.229C268.896 451.55 268.759 450.943 268.485 450.407C268.211 449.871 267.818 449.448 267.306 449.138C266.806 448.829 266.204 448.674 265.501 448.674C264.81 448.674 264.209 448.829 263.697 449.138C263.185 449.448 262.791 449.871 262.518 450.407C262.244 450.943 262.107 451.55 262.107 452.229C262.107 452.896 262.238 453.498 262.5 454.034C262.774 454.57 263.161 454.999 263.661 455.32C264.173 455.63 264.787 455.785 265.501 455.785Z" fill="#73839B"/>
<g clip-path="url(#clip1_5_289)">
<g filter="url(#filter0_d_5_289)">
<path d="M1111.34 275.974L1068.65 233.228C1080.28 217.74 1087.23 198.532 1087.23 177.678C1087.23 126.7 1045.75 85.1741 994.775 85.1741C943.799 85.1741 902.384 126.7 902.384 177.678C902.384 228.655 943.86 270.181 994.775 270.181C1014.81 270.181 1033.33 263.778 1048.49 252.863L1091.43 295.853C1094.17 298.597 1097.76 299.999 1101.36 299.999C1104.95 299.999 1108.54 298.597 1111.28 295.853C1116.83 290.365 1116.83 281.462 1111.34 275.974ZM930.522 177.678C930.522 142.188 959.39 113.285 994.836 113.285C1030.28 113.285 1059.15 142.188 1059.15 177.678C1059.15 213.167 1030.28 242.07 994.836 242.07C959.329 242.07 930.522 213.228 930.522 177.678Z" fill="white"/>
</g>
</g>
<g filter="url(#filter1_bd_5_289)">
<path d="M926.713 257.21C982.078 239.683 1012.75 180.597 995.228 125.237C977.702 69.8777 918.613 39.2087 863.247 56.736C807.882 74.2633 777.207 133.35 794.733 188.709C812.258 244.069 871.348 274.738 926.713 257.21Z" fill="url(#paint4_linear_5_289)" shape-rendering="crispEdges"/>
<path d="M992.675 126.045C1009.75 179.994 979.86 237.576 925.905 254.657C871.949 271.738 814.365 241.85 797.286 187.901C780.207 133.952 810.1 76.3701 864.056 59.289C918.011 42.208 975.596 72.0961 992.675 126.045Z" stroke="url(#paint5_linear_5_289)" stroke-width="5.35575" shape-rendering="crispEdges"/>
</g>
<line x1="851.294" y1="127.055" x2="938.739" y2="127.055" stroke="url(#paint6_linear_5_289)" stroke-width="14.4838" stroke-linecap="round"/>
<line x1="851.294" y1="159.269" x2="938.739" y2="159.269" stroke="url(#paint7_linear_5_289)" stroke-width="14.4838" stroke-linecap="round"/>
<line x1="851.294" y1="192.498" x2="896.47" y2="192.498" stroke="url(#paint8_linear_5_289)" stroke-width="14.4838" stroke-linecap="round"/>
<path d="M1399.54 514.231L1373.72 469.395C1367.59 458.752 1354.03 455.102 1343.47 461.255L1072.31 617.407L999.7 491.189C993.571 480.546 980.011 476.897 969.458 483.049L924.509 508.934C913.866 515.062 910.216 528.622 916.345 539.265L1025.86 729.567C1031.98 740.21 1045.54 743.859 1056.1 737.706L1391.28 544.538C1401.95 538.32 1405.6 524.76 1399.54 514.231ZM1084.77 530.925C1088.79 538.034 1097.89 540.484 1104.94 536.352L1340.48 400.559C1347.53 396.427 1349.95 387.417 1345.91 380.397L1316.46 329.132C1312.45 322.023 1303.35 319.574 1296.3 323.705L1124.77 422.482L1088.68 359.668C1084.66 352.56 1075.56 350.11 1068.51 354.242L1017.23 383.777C1010.18 387.909 1007.76 396.919 1011.8 403.939L1084.77 530.925Z" fill="white" fill-opacity="0.1"/>
<g filter="url(#filter2_b_5_289)">
<path d="M243 581H421V551C421 545.477 416.523 541 411 541H253C247.477 541 243 545.477 243 551V581Z" fill="#E2F0F4"/>
</g>
<path d="M273.625 564.75V559.25H268.125V561.312H264.688V555.812C264.688 555.448 264.543 555.098 264.285 554.84C264.027 554.582 263.677 554.438 263.312 554.438H259.875V552.375H254.375V557.875H259.875V555.812H263.312V568.188C263.312 568.552 263.457 568.902 263.715 569.16C263.973 569.418 264.323 569.562 264.688 569.562H268.125V571.625H273.625V566.125H268.125V568.188H264.688V562.688H268.125V564.75H273.625ZM258.5 556.5H255.75V553.75H258.5V556.5ZM269.5 567.5H272.25V570.25H269.5V567.5ZM269.5 560.625H272.25V563.375H269.5V560.625Z" fill="url(#paint9_linear_5_289)"/>
<g filter="url(#filter3_b_5_289)">
<path d="M55 581H234V551C234 545.477 229.523 541 224 541H65C59.4772 541 55 545.477 55 551V581Z" fill="url(#paint10_linear_5_289)"/>
</g>
<g filter="url(#filter4_b_5_289)">
<path d="M430 581H609V551C609 545.477 604.523 541 599 541H440C434.477 541 430 545.477 430 551V581Z" fill="#E2F0F4"/>
</g>
<path d="M464.203 551.953H444.797C444.33 551.953 443.953 552.33 443.953 552.797V572.203C443.953 572.67 444.33 573.047 444.797 573.047H464.203C464.67 573.047 465.047 572.67 465.047 572.203V552.797C465.047 552.33 464.67 551.953 464.203 551.953ZM463.148 571.148H445.852V553.852H463.148V571.148ZM449.965 567.009V569.039C449.965 569.155 450.06 569.25 450.176 569.25H451.441C451.557 569.25 451.652 569.155 451.652 569.039V567.009C451.386 567.096 451.104 567.141 450.809 567.141C450.513 567.141 450.231 567.093 449.965 567.009ZM451.652 561.788V555.961C451.652 555.845 451.557 555.75 451.441 555.75H450.176C450.06 555.75 449.965 555.845 449.965 555.961V561.788C450.231 561.701 450.513 561.656 450.809 561.656C451.104 561.656 451.386 561.704 451.652 561.788ZM449.965 567.009C450.231 567.096 450.513 567.141 450.809 567.141C451.104 567.141 451.386 567.093 451.652 567.009C452.754 566.653 453.551 565.619 453.551 564.398C453.551 563.178 452.754 562.144 451.652 561.788C451.386 561.701 451.104 561.656 450.809 561.656C450.513 561.656 450.231 561.704 449.965 561.788C448.863 562.144 448.066 563.178 448.066 564.398C448.066 565.619 448.863 566.653 449.965 567.009ZM449.967 563.958C449.975 563.942 449.986 563.926 449.994 563.911V563.908L450.025 563.861C450.028 563.855 450.031 563.853 450.033 563.847C450.041 563.834 450.052 563.824 450.06 563.81C450.062 563.808 450.065 563.803 450.068 563.8C450.081 563.784 450.091 563.771 450.105 563.758L450.113 563.75L450.144 563.718L450.155 563.708C450.168 563.694 450.181 563.684 450.197 563.671C450.213 563.658 450.226 563.647 450.242 563.636C450.247 563.634 450.25 563.631 450.255 563.629C450.268 563.621 450.279 563.61 450.292 563.602C450.294 563.6 450.3 563.597 450.302 563.594C450.318 563.584 450.334 563.576 450.352 563.565C450.355 563.563 450.36 563.563 450.363 563.56C450.376 563.552 450.389 563.547 450.405 563.539L450.421 563.531C450.439 563.523 450.455 563.515 450.474 563.51C450.492 563.502 450.511 563.497 450.529 563.491C450.534 563.489 450.54 563.489 450.545 563.486C450.561 563.481 450.574 563.478 450.59 563.476C450.595 563.476 450.598 563.473 450.603 563.473C450.621 563.468 450.642 563.465 450.661 563.462C450.666 563.462 450.669 563.462 450.674 563.46C450.69 563.457 450.706 563.457 450.722 563.454H450.737C450.758 563.454 450.777 563.452 450.798 563.452C450.819 563.452 450.838 563.452 450.859 563.454H450.875C450.89 563.454 450.906 563.457 450.922 563.46C450.927 563.46 450.93 563.46 450.935 563.462C450.954 563.465 450.975 563.468 450.993 563.473C450.998 563.473 451.001 563.476 451.006 563.476C451.022 563.478 451.038 563.483 451.051 563.486C451.056 563.489 451.062 563.489 451.067 563.491C451.085 563.497 451.104 563.502 451.122 563.51C451.141 563.515 451.157 563.523 451.175 563.531L451.191 563.539C451.204 563.544 451.22 563.552 451.233 563.56C451.236 563.563 451.241 563.563 451.244 563.565C451.259 563.573 451.278 563.584 451.294 563.594C451.296 563.597 451.302 563.6 451.304 563.602C451.317 563.61 451.331 563.618 451.341 563.629C451.346 563.631 451.349 563.634 451.354 563.636C451.37 563.647 451.386 563.66 451.399 563.671C451.412 563.681 451.428 563.694 451.441 563.708L451.452 563.718L451.484 563.75L451.492 563.758C451.505 563.771 451.518 563.787 451.528 563.8C451.531 563.803 451.534 563.808 451.536 563.81C451.547 563.821 451.555 563.834 451.563 563.847C451.565 563.853 451.568 563.855 451.571 563.861L451.602 563.908C451.602 563.908 451.602 563.911 451.605 563.911C451.693 564.058 451.739 564.227 451.739 564.398C451.739 564.557 451.7 564.707 451.631 564.839C451.623 564.855 451.613 564.87 451.605 564.886C451.605 564.886 451.605 564.889 451.602 564.889L451.571 564.936C451.568 564.942 451.565 564.944 451.563 564.95C451.555 564.963 451.544 564.973 451.536 564.986C451.534 564.989 451.531 564.994 451.528 564.997C451.515 565.013 451.505 565.026 451.492 565.039L451.484 565.047L451.452 565.079L451.441 565.089C451.428 565.102 451.415 565.113 451.399 565.126C451.383 565.139 451.37 565.15 451.354 565.16C451.349 565.163 451.346 565.166 451.341 565.168C451.328 565.176 451.317 565.187 451.304 565.195C451.302 565.197 451.296 565.2 451.294 565.203C451.278 565.213 451.262 565.221 451.244 565.232C451.241 565.234 451.236 565.234 451.233 565.237C451.22 565.245 451.207 565.25 451.191 565.258L451.175 565.266C451.157 565.274 451.141 565.282 451.122 565.287C451.104 565.295 451.085 565.3 451.067 565.305C451.062 565.308 451.056 565.308 451.051 565.311C451.035 565.316 451.022 565.319 451.006 565.321C451.001 565.321 450.998 565.324 450.993 565.324C450.975 565.329 450.954 565.332 450.935 565.334C450.93 565.334 450.927 565.334 450.922 565.337C450.906 565.34 450.89 565.34 450.875 565.342H450.859C450.838 565.342 450.819 565.345 450.798 565.345C450.777 565.345 450.758 565.345 450.737 565.342H450.722C450.706 565.342 450.69 565.34 450.674 565.337C450.669 565.337 450.666 565.337 450.661 565.334C450.642 565.332 450.621 565.329 450.603 565.324C450.598 565.324 450.595 565.321 450.59 565.321C450.574 565.319 450.558 565.313 450.545 565.311C450.54 565.308 450.534 565.308 450.529 565.305C450.511 565.3 450.492 565.295 450.474 565.287C450.455 565.282 450.439 565.274 450.421 565.266L450.405 565.258C450.392 565.253 450.376 565.245 450.363 565.237C450.36 565.234 450.355 565.234 450.352 565.232C450.337 565.224 450.318 565.213 450.302 565.203C450.3 565.2 450.294 565.197 450.292 565.195C450.279 565.187 450.265 565.179 450.255 565.168C450.25 565.166 450.247 565.163 450.242 565.16C450.226 565.15 450.21 565.137 450.197 565.126C450.184 565.116 450.168 565.102 450.155 565.089L450.144 565.079L450.113 565.047L450.105 565.039C450.091 565.026 450.078 565.01 450.068 564.997C450.065 564.994 450.062 564.989 450.06 564.986C450.049 564.976 450.041 564.963 450.033 564.95C450.031 564.944 450.028 564.942 450.025 564.936L449.994 564.889V564.886C449.983 564.87 449.975 564.855 449.967 564.839C449.899 564.707 449.859 564.557 449.859 564.398C449.859 564.24 449.899 564.09 449.967 563.958ZM457.348 563.212V569.039C457.348 569.155 457.443 569.25 457.559 569.25H458.824C458.94 569.25 459.035 569.155 459.035 569.039V563.212C458.769 563.299 458.487 563.344 458.191 563.344C457.896 563.344 457.614 563.296 457.348 563.212ZM459.035 557.991V555.961C459.035 555.845 458.94 555.75 458.824 555.75H457.559C457.443 555.75 457.348 555.845 457.348 555.961V557.991C457.614 557.904 457.896 557.859 458.191 557.859C458.487 557.859 458.769 557.907 459.035 557.991ZM457.348 563.212C457.614 563.299 457.896 563.344 458.191 563.344C458.487 563.344 458.769 563.296 459.035 563.212C460.137 562.856 460.934 561.822 460.934 560.602C460.934 559.381 460.137 558.347 459.035 557.991C458.769 557.904 458.487 557.859 458.191 557.859C457.896 557.859 457.614 557.907 457.348 557.991C456.246 558.347 455.449 559.381 455.449 560.602C455.449 561.822 456.246 562.856 457.348 563.212ZM457.35 560.161C457.358 560.145 457.369 560.13 457.377 560.114V560.111L457.408 560.064C457.411 560.058 457.414 560.056 457.416 560.05C457.424 560.037 457.435 560.027 457.443 560.014C457.445 560.011 457.448 560.006 457.45 560.003C457.464 559.987 457.474 559.974 457.487 559.961L457.495 559.953L457.527 559.921L457.538 559.911C457.551 559.898 457.564 559.887 457.58 559.874C457.596 559.861 457.609 559.85 457.625 559.84C457.63 559.837 457.632 559.834 457.638 559.832C457.651 559.824 457.661 559.813 457.675 559.805C457.677 559.803 457.683 559.8 457.685 559.797C457.701 559.787 457.717 559.779 457.735 559.768C457.738 559.766 457.743 559.766 457.746 559.763C457.759 559.755 457.772 559.75 457.788 559.742L457.804 559.734C457.822 559.726 457.838 559.718 457.857 559.713C457.875 559.705 457.893 559.7 457.912 559.695C457.917 559.692 457.922 559.692 457.928 559.689C457.944 559.684 457.957 559.681 457.973 559.679C457.978 559.679 457.98 559.676 457.986 559.676C458.004 559.671 458.025 559.668 458.044 559.666C458.049 559.666 458.052 559.666 458.057 559.663C458.073 559.66 458.089 559.66 458.104 559.658H458.12C458.141 559.658 458.16 559.655 458.181 559.655C458.202 559.655 458.22 559.655 458.242 559.658H458.257C458.273 559.658 458.289 559.66 458.305 559.663C458.31 559.663 458.313 559.663 458.318 559.666C458.336 559.668 458.358 559.671 458.376 559.676C458.381 559.676 458.384 559.679 458.389 559.679C458.405 559.681 458.421 559.687 458.434 559.689C458.439 559.692 458.445 559.692 458.45 559.695C458.468 559.7 458.487 559.705 458.505 559.713C458.524 559.718 458.539 559.726 458.558 559.734L458.574 559.742C458.587 559.747 458.603 559.755 458.616 559.763C458.619 559.766 458.624 559.766 458.626 559.768C458.642 559.776 458.661 559.787 458.677 559.797C458.679 559.8 458.684 559.803 458.687 559.805C458.7 559.813 458.713 559.821 458.724 559.832C458.729 559.834 458.732 559.837 458.737 559.84C458.753 559.85 458.769 559.863 458.782 559.874C458.795 559.884 458.811 559.898 458.824 559.911L458.835 559.921L458.866 559.953L458.874 559.961C458.888 559.974 458.901 559.99 458.911 560.003C458.914 560.006 458.917 560.011 458.919 560.014C458.93 560.024 458.938 560.037 458.946 560.05C458.948 560.056 458.951 560.058 458.953 560.064L458.985 560.111V560.114C459.073 560.261 459.119 560.43 459.12 560.602C459.12 560.76 459.08 560.91 459.011 561.042C459.004 561.058 458.993 561.074 458.985 561.089V561.092L458.953 561.139C458.951 561.145 458.948 561.147 458.946 561.153C458.938 561.166 458.927 561.176 458.919 561.19C458.917 561.192 458.914 561.197 458.911 561.2C458.898 561.216 458.888 561.229 458.874 561.242L458.866 561.25L458.835 561.282L458.824 561.292C458.811 561.306 458.798 561.316 458.782 561.329C458.766 561.342 458.753 561.353 458.737 561.364C458.732 561.366 458.729 561.369 458.724 561.371C458.711 561.379 458.7 561.39 458.687 561.398C458.684 561.4 458.679 561.403 458.677 561.406C458.661 561.416 458.645 561.424 458.626 561.435C458.624 561.437 458.619 561.437 458.616 561.44C458.603 561.448 458.59 561.453 458.574 561.461L458.558 561.469C458.539 561.477 458.524 561.485 458.505 561.49C458.487 561.498 458.468 561.503 458.45 561.509C458.445 561.511 458.439 561.511 458.434 561.514C458.418 561.519 458.405 561.522 458.389 561.524C458.384 561.524 458.381 561.527 458.376 561.527C458.358 561.532 458.336 561.535 458.318 561.538C458.313 561.538 458.31 561.538 458.305 561.54C458.289 561.543 458.273 561.543 458.257 561.546H458.242C458.22 561.546 458.202 561.548 458.181 561.548C458.16 561.548 458.141 561.548 458.12 561.546H458.104C458.089 561.546 458.073 561.543 458.057 561.54C458.052 561.54 458.049 561.54 458.044 561.538C458.025 561.535 458.004 561.532 457.986 561.527C457.98 561.527 457.978 561.524 457.973 561.524C457.957 561.522 457.941 561.517 457.928 561.514C457.922 561.511 457.917 561.511 457.912 561.509C457.893 561.503 457.875 561.498 457.857 561.49C457.838 561.485 457.822 561.477 457.804 561.469L457.788 561.461C457.775 561.456 457.759 561.448 457.746 561.44C457.743 561.437 457.738 561.437 457.735 561.435C457.719 561.427 457.701 561.416 457.685 561.406C457.683 561.403 457.677 561.4 457.675 561.398C457.661 561.39 457.648 561.382 457.638 561.371C457.632 561.369 457.63 561.366 457.625 561.364C457.609 561.353 457.593 561.34 457.58 561.329C457.567 561.319 457.551 561.306 457.538 561.292L457.527 561.282L457.495 561.25L457.487 561.242C457.474 561.229 457.461 561.213 457.45 561.2C457.448 561.197 457.445 561.192 457.443 561.19C457.432 561.179 457.424 561.166 457.416 561.153C457.414 561.147 457.411 561.145 457.408 561.139L457.377 561.092V561.089C457.366 561.074 457.358 561.058 457.35 561.042C457.282 560.91 457.242 560.76 457.242 560.602C457.242 560.443 457.282 560.293 457.35 560.161Z" fill="url(#paint11_linear_5_289)"/>
<path d="M81.4068 558.415L76.0133 553.687C75.5188 553.244 74.8787 553 74.2154 553C73.5521 553 72.912 553.244 72.4176 553.687L67.024 558.415C66.7385 558.67 66.5106 558.984 66.3556 559.334C66.2006 559.684 66.122 560.064 66.1251 560.447V568.303C66.1251 569.018 66.4092 569.704 66.915 570.21C67.4207 570.716 68.1066 571 68.8219 571H79.6089C80.3242 571 81.0101 570.716 81.5159 570.21C82.0216 569.704 82.3057 569.018 82.3057 568.303V560.438C82.3075 560.056 82.2283 559.679 82.0733 559.33C81.9184 558.981 81.6912 558.669 81.4068 558.415ZM76.0133 569.202H72.4176V564.708C72.4176 564.469 72.5123 564.24 72.6808 564.072C72.8494 563.903 73.0781 563.809 73.3165 563.809H75.1143C75.3527 563.809 75.5814 563.903 75.75 564.072C75.9185 564.24 76.0133 564.469 76.0133 564.708V569.202ZM80.5079 568.303C80.5079 568.542 80.4132 568.77 80.2446 568.939C80.076 569.107 79.8474 569.202 79.6089 569.202H77.8111V564.708C77.8111 563.992 77.527 563.306 77.0212 562.801C76.5155 562.295 75.8296 562.011 75.1143 562.011H73.3165C72.6013 562.011 71.9153 562.295 71.4096 562.801C70.9038 563.306 70.6197 563.992 70.6197 564.708V569.202H68.8219C68.5834 569.202 68.3548 569.107 68.1862 568.939C68.0176 568.77 67.9229 568.542 67.9229 568.303V560.438C67.9231 560.31 67.9504 560.184 68.0031 560.068C68.0558 559.951 68.1327 559.848 68.2286 559.763L73.6221 555.044C73.7862 554.9 73.997 554.82 74.2154 554.82C74.4338 554.82 74.6447 554.9 74.8087 555.044L80.2022 559.763C80.2981 559.848 80.375 559.951 80.4277 560.068C80.4804 560.184 80.5077 560.31 80.5079 560.438V568.303Z" fill="white"/>
<path d="M285.369 566L288.83 556.391H291.015L294.582 566H293.253L290.028 557.234L290.66 557.55H289.107L289.778 557.234L286.658 566H285.369ZM287.435 563.131L287.869 561.972H292.016L292.45 563.131H287.435ZM289.159 555.628L290.831 553.469H292.305L290.318 555.628H289.159ZM296.16 566V558.971H297.16V561.867H297.108C297.108 560.84 297.331 560.09 297.779 559.616C298.235 559.134 298.915 558.892 299.819 558.892H300.056V560.024H299.609C298.907 560.024 298.367 560.213 297.99 560.59C297.612 560.959 297.424 561.494 297.424 562.196V566H296.16ZM303.291 566L300.895 558.971H302.211L304.554 566H303.291ZM303.606 566V565H305.133V566H303.606ZM304.212 566L306.252 558.971H307.489L305.41 566H304.212ZM312.252 566.237C311.638 566.237 311.098 566.132 310.633 565.921C310.168 565.71 309.773 565.434 309.448 565.092C309.132 564.741 308.891 564.35 308.724 563.92C308.566 563.49 308.487 563.052 308.487 562.604V562.367C308.487 561.92 308.571 561.481 308.738 561.051C308.904 560.612 309.15 560.222 309.475 559.879C309.799 559.528 310.194 559.252 310.659 559.05C311.124 558.84 311.655 558.734 312.252 558.734C312.849 558.734 313.38 558.84 313.845 559.05C314.31 559.252 314.705 559.528 315.029 559.879C315.354 560.222 315.6 560.612 315.766 561.051C315.933 561.481 316.016 561.92 316.016 562.367V562.604C316.016 563.052 315.933 563.49 315.766 563.92C315.608 564.35 315.367 564.741 315.042 565.092C314.726 565.434 314.336 565.71 313.871 565.921C313.406 566.132 312.866 566.237 312.252 566.237ZM312.252 565.105C312.778 565.105 313.226 564.991 313.595 564.763C313.972 564.526 314.257 564.21 314.45 563.815C314.652 563.42 314.753 562.977 314.753 562.486C314.753 561.985 314.652 561.538 314.45 561.143C314.248 560.748 313.959 560.437 313.581 560.208C313.213 559.98 312.77 559.866 312.252 559.866C311.743 559.866 311.3 559.98 310.923 560.208C310.545 560.437 310.256 560.748 310.054 561.143C309.852 561.538 309.751 561.985 309.751 562.486C309.751 562.977 309.848 563.42 310.041 563.815C310.242 564.21 310.528 564.526 310.896 564.763C311.274 564.991 311.725 565.105 312.252 565.105ZM317.909 566V558.971H318.909V561.867H318.857C318.857 560.84 319.08 560.09 319.528 559.616C319.984 559.134 320.664 558.892 321.568 558.892H321.805V560.024H321.357C320.655 560.024 320.116 560.213 319.739 560.59C319.361 560.959 319.173 561.494 319.173 562.196V566H317.909ZM326.218 566.237C325.604 566.237 325.073 566.132 324.626 565.921C324.178 565.71 323.814 565.434 323.533 565.092C323.252 564.741 323.042 564.35 322.901 563.92C322.77 563.49 322.704 563.052 322.704 562.604V562.367C322.704 561.911 322.77 561.468 322.901 561.038C323.042 560.608 323.252 560.222 323.533 559.879C323.814 559.528 324.169 559.252 324.599 559.05C325.038 558.84 325.551 558.734 326.139 558.734C326.903 558.734 327.53 558.901 328.022 559.234C328.522 559.559 328.89 559.98 329.127 560.498C329.373 561.016 329.496 561.569 329.496 562.157V562.723H323.257V561.775H328.574L328.285 562.288C328.285 561.788 328.206 561.358 328.048 560.998C327.89 560.63 327.653 560.345 327.337 560.143C327.021 559.941 326.622 559.84 326.139 559.84C325.639 559.84 325.222 559.954 324.889 560.182C324.564 560.41 324.319 560.722 324.152 561.117C323.994 561.512 323.915 561.968 323.915 562.486C323.915 562.986 323.994 563.438 324.152 563.841C324.319 564.236 324.573 564.552 324.915 564.789C325.258 565.017 325.692 565.131 326.218 565.131C326.771 565.131 327.219 565.008 327.561 564.763C327.912 564.517 328.123 564.232 328.193 563.907H329.377C329.281 564.39 329.088 564.807 328.798 565.158C328.509 565.509 328.144 565.776 327.706 565.961C327.267 566.145 326.771 566.237 326.218 566.237ZM337.22 566.237C336.72 566.237 336.259 566.145 335.838 565.961C335.417 565.776 335.048 565.517 334.732 565.184C334.425 564.85 334.184 564.464 334.009 564.026C333.842 563.587 333.758 563.113 333.758 562.604V562.367C333.758 561.867 333.842 561.398 334.009 560.959C334.175 560.52 334.408 560.134 334.706 559.8C335.013 559.467 335.373 559.208 335.785 559.024C336.207 558.831 336.672 558.734 337.181 558.734C337.716 558.734 338.203 558.848 338.642 559.077C339.08 559.296 339.44 559.643 339.721 560.116C340.002 560.59 340.16 561.204 340.195 561.959L339.668 561.117V556.391H340.932V566H339.932V562.88H340.3C340.265 563.679 340.098 564.328 339.8 564.829C339.502 565.32 339.124 565.68 338.668 565.908C338.221 566.127 337.738 566.237 337.22 566.237ZM337.391 565.131C337.821 565.131 338.212 565.035 338.563 564.842C338.914 564.649 339.195 564.372 339.405 564.012C339.616 563.644 339.721 563.214 339.721 562.723V562.117C339.721 561.634 339.611 561.226 339.392 560.893C339.181 560.551 338.896 560.292 338.536 560.116C338.185 559.932 337.799 559.84 337.378 559.84C336.913 559.84 336.501 559.95 336.141 560.169C335.79 560.388 335.513 560.696 335.312 561.09C335.119 561.485 335.022 561.95 335.022 562.486C335.022 563.021 335.123 563.49 335.325 563.894C335.527 564.289 335.807 564.596 336.167 564.815C336.527 565.026 336.935 565.131 337.391 565.131ZM346.348 566.237C345.733 566.237 345.203 566.132 344.755 565.921C344.308 565.71 343.943 565.434 343.663 565.092C343.382 564.741 343.171 564.35 343.031 563.92C342.899 563.49 342.833 563.052 342.833 562.604V562.367C342.833 561.911 342.899 561.468 343.031 561.038C343.171 560.608 343.382 560.222 343.663 559.879C343.943 559.528 344.299 559.252 344.729 559.05C345.167 558.84 345.681 558.734 346.269 558.734C347.032 558.734 347.66 558.901 348.151 559.234C348.651 559.559 349.02 559.98 349.257 560.498C349.502 561.016 349.625 561.569 349.625 562.157V562.723H343.386V561.775H348.704L348.414 562.288C348.414 561.788 348.335 561.358 348.177 560.998C348.019 560.63 347.782 560.345 347.467 560.143C347.151 559.941 346.751 559.84 346.269 559.84C345.769 559.84 345.352 559.954 345.018 560.182C344.694 560.41 344.448 560.722 344.281 561.117C344.123 561.512 344.044 561.968 344.044 562.486C344.044 562.986 344.123 563.438 344.281 563.841C344.448 564.236 344.702 564.552 345.045 564.789C345.387 565.017 345.821 565.131 346.348 565.131C346.901 565.131 347.348 565.008 347.69 564.763C348.041 564.517 348.252 564.232 348.322 563.907H349.507C349.41 564.39 349.217 564.807 348.928 565.158C348.638 565.509 348.274 565.776 347.835 565.961C347.396 566.145 346.901 566.237 346.348 566.237ZM355.625 562.657V561.525H357.771C358.227 561.525 358.604 561.437 358.903 561.262C359.201 561.077 359.425 560.832 359.574 560.524C359.732 560.217 359.811 559.875 359.811 559.498C359.811 559.112 359.732 558.765 359.574 558.458C359.425 558.151 359.201 557.909 358.903 557.734C358.604 557.558 358.227 557.471 357.771 557.471H355.625V556.339H357.534C358.324 556.339 358.982 556.466 359.508 556.72C360.043 556.966 360.447 557.317 360.719 557.773C360.991 558.23 361.127 558.769 361.127 559.392V559.603C361.127 560.217 360.991 560.757 360.719 561.222C360.447 561.678 360.043 562.034 359.508 562.288C358.982 562.534 358.324 562.657 357.534 562.657H355.625ZM354.599 566V556.339H355.888V566H354.599ZM365.693 566.237C365.079 566.237 364.548 566.132 364.1 565.921C363.653 565.71 363.289 565.434 363.008 565.092C362.727 564.741 362.516 564.35 362.376 563.92C362.244 563.49 362.179 563.052 362.179 562.604V562.367C362.179 561.911 362.244 561.468 362.376 561.038C362.516 560.608 362.727 560.222 363.008 559.879C363.289 559.528 363.644 559.252 364.074 559.05C364.513 558.84 365.026 558.734 365.614 558.734C366.377 558.734 367.005 558.901 367.496 559.234C367.996 559.559 368.365 559.98 368.602 560.498C368.848 561.016 368.97 561.569 368.97 562.157V562.723H362.731V561.775H368.049L367.76 562.288C367.76 561.788 367.681 561.358 367.523 560.998C367.365 560.63 367.128 560.345 366.812 560.143C366.496 559.941 366.097 559.84 365.614 559.84C365.114 559.84 364.697 559.954 364.364 560.182C364.039 560.41 363.793 560.722 363.626 561.117C363.469 561.512 363.39 561.968 363.39 562.486C363.39 562.986 363.469 563.438 363.626 563.841C363.793 564.236 364.048 564.552 364.39 564.789C364.732 565.017 365.167 565.131 365.693 565.131C366.246 565.131 366.693 565.008 367.036 564.763C367.387 564.517 367.597 564.232 367.667 563.907H368.852C368.755 564.39 368.562 564.807 368.273 565.158C367.983 565.509 367.619 565.776 367.18 565.961C366.742 566.145 366.246 566.237 365.693 566.237ZM370.765 566V558.971H371.765V561.867H371.712C371.712 560.84 371.936 560.09 372.384 559.616C372.84 559.134 373.52 558.892 374.424 558.892H374.661V560.024H374.213C373.511 560.024 372.971 560.213 372.594 560.59C372.217 560.959 372.028 561.494 372.028 562.196V566H370.765ZM379.021 566.237C378.521 566.237 378.061 566.145 377.639 565.961C377.218 565.776 376.85 565.517 376.534 565.184C376.227 564.85 375.985 564.464 375.81 564.026C375.643 563.587 375.56 563.113 375.56 562.604V562.367C375.56 561.867 375.643 561.398 375.81 560.959C375.976 560.52 376.209 560.134 376.507 559.8C376.814 559.467 377.174 559.208 377.587 559.024C378.008 558.831 378.473 558.734 378.982 558.734C379.517 558.734 380.004 558.848 380.443 559.077C380.882 559.296 381.241 559.643 381.522 560.116C381.803 560.59 381.961 561.204 381.996 561.959L381.47 561.117V556.391H382.733V566H381.733V562.88H382.101C382.066 563.679 381.9 564.328 381.601 564.829C381.303 565.32 380.926 565.68 380.469 565.908C380.022 566.127 379.539 566.237 379.021 566.237ZM379.192 565.131C379.622 565.131 380.013 565.035 380.364 564.842C380.715 564.649 380.996 564.372 381.206 564.012C381.417 563.644 381.522 563.214 381.522 562.723V562.117C381.522 561.634 381.413 561.226 381.193 560.893C380.983 560.551 380.697 560.292 380.338 560.116C379.987 559.932 379.601 559.84 379.179 559.84C378.714 559.84 378.302 559.95 377.942 560.169C377.591 560.388 377.315 560.696 377.113 561.09C376.92 561.485 376.823 561.95 376.823 562.486C376.823 563.021 376.924 563.49 377.126 563.894C377.328 564.289 377.609 564.596 377.968 564.815C378.328 565.026 378.736 565.131 379.192 565.131ZM389.413 566V563.894H389.202V561.459C389.202 560.976 389.075 560.612 388.82 560.366C388.575 560.121 388.21 559.998 387.728 559.998C387.456 559.998 387.175 560.002 386.885 560.011C386.596 560.02 386.319 560.029 386.056 560.037C385.793 560.046 385.565 560.059 385.372 560.077V558.971C385.565 558.954 385.767 558.941 385.977 558.932C386.197 558.914 386.42 558.905 386.648 558.905C386.877 558.897 387.096 558.892 387.307 558.892C388.026 558.892 388.614 558.98 389.07 559.155C389.527 559.322 389.864 559.599 390.084 559.985C390.303 560.371 390.413 560.893 390.413 561.551V566H389.413ZM387.109 566.184C386.583 566.184 386.126 566.097 385.74 565.921C385.363 565.737 385.069 565.474 384.858 565.131C384.657 564.789 384.556 564.377 384.556 563.894C384.556 563.394 384.665 562.977 384.885 562.644C385.113 562.31 385.442 562.06 385.872 561.893C386.302 561.718 386.82 561.63 387.425 561.63H389.334V562.578H387.372C386.863 562.578 386.473 562.701 386.201 562.946C385.929 563.192 385.793 563.508 385.793 563.894C385.793 564.28 385.929 564.592 386.201 564.829C386.473 565.065 386.863 565.184 387.372 565.184C387.671 565.184 387.956 565.131 388.228 565.026C388.5 564.912 388.724 564.728 388.899 564.473C389.083 564.21 389.184 563.85 389.202 563.394L389.544 563.894C389.5 564.394 389.377 564.815 389.176 565.158C388.983 565.491 388.711 565.746 388.36 565.921C388.017 566.097 387.601 566.184 387.109 566.184ZM395.036 566.211C394.114 566.211 393.399 566.013 392.89 565.618C392.39 565.223 392.131 564.684 392.113 563.999H393.298C393.316 564.271 393.452 564.53 393.706 564.776C393.969 565.013 394.412 565.131 395.036 565.131C395.597 565.131 396.027 565.022 396.325 564.802C396.624 564.574 396.773 564.298 396.773 563.973C396.773 563.683 396.663 563.46 396.444 563.302C396.225 563.135 395.869 563.025 395.378 562.973L394.614 562.894C393.947 562.823 393.403 562.626 392.982 562.301C392.561 561.968 392.35 561.503 392.35 560.906C392.35 560.459 392.464 560.077 392.693 559.761C392.921 559.436 393.237 559.191 393.64 559.024C394.044 558.848 394.509 558.761 395.036 558.761C395.825 558.761 396.466 558.936 396.957 559.287C397.449 559.638 397.703 560.16 397.721 560.853H396.536C396.527 560.573 396.396 560.336 396.141 560.143C395.895 559.941 395.527 559.84 395.036 559.84C394.544 559.84 394.171 559.941 393.917 560.143C393.662 560.345 393.535 560.599 393.535 560.906C393.535 561.169 393.623 561.38 393.798 561.538C393.983 561.696 394.281 561.797 394.693 561.841L395.457 561.92C396.211 561.999 396.817 562.209 397.273 562.551C397.729 562.885 397.958 563.359 397.958 563.973C397.958 564.412 397.83 564.802 397.576 565.144C397.33 565.478 396.988 565.741 396.549 565.934C396.11 566.118 395.606 566.211 395.036 566.211Z" fill="url(#paint12_linear_5_289)"/>
<path d="M94.4219 562.657V561.525H96.5674C97.0237 561.525 97.401 561.437 97.6994 561.262C97.9977 561.077 98.2215 560.832 98.3707 560.524C98.5286 560.217 98.6076 559.875 98.6076 559.498C98.6076 559.112 98.5286 558.765 98.3707 558.458C98.2215 558.151 97.9977 557.909 97.6994 557.734C97.401 557.558 97.0237 557.471 96.5674 557.471H94.4219V556.339H96.3305C97.1202 556.339 97.7783 556.466 98.3048 556.72C98.8401 556.966 99.2438 557.317 99.5158 557.773C99.7878 558.23 99.9238 558.769 99.9238 559.392V559.603C99.9238 560.217 99.7878 560.757 99.5158 561.222C99.2438 561.678 98.8401 562.034 98.3048 562.288C97.7783 562.534 97.1202 562.657 96.3305 562.657H94.4219ZM93.3952 566V556.339H94.6852V566H93.3952ZM105.805 566V563.894H105.594V561.459C105.594 560.976 105.467 560.612 105.212 560.366C104.967 560.121 104.603 559.998 104.12 559.998C103.848 559.998 103.567 560.002 103.277 560.011C102.988 560.02 102.711 560.029 102.448 560.037C102.185 560.046 101.957 560.059 101.764 560.077V558.971C101.957 558.954 102.159 558.941 102.369 558.932C102.589 558.914 102.812 558.905 103.041 558.905C103.269 558.897 103.488 558.892 103.699 558.892C104.418 558.892 105.006 558.98 105.462 559.155C105.919 559.322 106.257 559.599 106.476 559.985C106.695 560.371 106.805 560.893 106.805 561.551V566H105.805ZM103.501 566.184C102.975 566.184 102.518 566.097 102.132 565.921C101.755 565.737 101.461 565.474 101.25 565.131C101.049 564.789 100.948 564.377 100.948 563.894C100.948 563.394 101.057 562.977 101.277 562.644C101.505 562.31 101.834 562.06 102.264 561.893C102.694 561.718 103.212 561.63 103.817 561.63H105.726V562.578H103.764C103.256 562.578 102.865 562.701 102.593 562.946C102.321 563.192 102.185 563.508 102.185 563.894C102.185 564.28 102.321 564.592 102.593 564.829C102.865 565.065 103.256 565.184 103.764 565.184C104.063 565.184 104.348 565.131 104.62 565.026C104.892 564.912 105.116 564.728 105.291 564.473C105.476 564.21 105.577 563.85 105.594 563.394L105.936 563.894C105.892 564.394 105.77 564.815 105.568 565.158C105.375 565.491 105.103 565.746 104.752 565.921C104.409 566.097 103.993 566.184 103.501 566.184ZM103.37 557.945L104.528 555.338H105.857L104.396 557.945H103.37ZM111.783 568.738C111.458 568.738 111.129 568.725 110.796 568.698C110.471 568.672 110.16 568.637 109.861 568.593V567.527C110.177 567.571 110.506 567.606 110.848 567.632C111.199 567.667 111.529 567.685 111.836 567.685C112.476 567.685 112.985 567.597 113.363 567.422C113.749 567.255 114.025 566.987 114.192 566.619C114.367 566.259 114.455 565.794 114.455 565.223V563.881L114.876 562.88C114.85 563.591 114.701 564.184 114.429 564.657C114.157 565.122 113.801 565.473 113.363 565.71C112.933 565.939 112.454 566.053 111.928 566.053C111.436 566.053 110.985 565.961 110.572 565.776C110.168 565.583 109.817 565.32 109.519 564.986C109.23 564.653 109.001 564.271 108.835 563.841C108.677 563.403 108.598 562.942 108.598 562.459V562.222C108.598 561.731 108.681 561.275 108.848 560.853C109.015 560.423 109.247 560.051 109.545 559.735C109.844 559.419 110.199 559.173 110.612 558.998C111.033 558.822 111.493 558.734 111.994 558.734C112.582 558.734 113.099 558.862 113.547 559.116C113.994 559.362 114.345 559.726 114.6 560.208C114.863 560.682 115.008 561.266 115.034 561.959L114.666 561.972V558.971H115.666V565.171C115.666 566.013 115.534 566.693 115.271 567.211C115.017 567.737 114.604 568.124 114.034 568.369C113.472 568.615 112.722 568.738 111.783 568.738ZM112.165 564.894C112.586 564.894 112.968 564.802 113.31 564.618C113.661 564.434 113.937 564.17 114.139 563.828C114.35 563.477 114.455 563.06 114.455 562.578V561.972C114.455 561.498 114.345 561.099 114.126 560.774C113.915 560.45 113.639 560.204 113.297 560.037C112.954 559.871 112.582 559.787 112.178 559.787C111.722 559.787 111.318 559.893 110.967 560.103C110.616 560.314 110.344 560.612 110.151 560.998C109.958 561.376 109.861 561.823 109.861 562.341C109.861 562.859 109.958 563.31 110.151 563.697C110.353 564.083 110.625 564.381 110.967 564.592C111.318 564.793 111.717 564.894 112.165 564.894ZM117.756 566V564.394H119.283V566H117.756ZM124.657 566V556.391H125.947V566H124.657ZM128.585 566V558.971H129.586V561.985H129.428C129.428 561.292 129.52 560.709 129.704 560.235C129.897 559.752 130.187 559.388 130.573 559.142C130.959 558.888 131.446 558.761 132.034 558.761H132.086C132.973 558.761 133.626 559.037 134.048 559.59C134.478 560.143 134.693 560.941 134.693 561.985V566H133.429V561.722C133.429 561.178 133.275 560.744 132.968 560.419C132.661 560.086 132.24 559.919 131.705 559.919C131.152 559.919 130.704 560.09 130.362 560.432C130.02 560.774 129.849 561.231 129.849 561.801V566H128.585ZM137.347 566V558.971H138.61V566H137.347ZM136.267 559.972V558.971H138.61V559.972H136.267ZM137.702 557.839C137.421 557.839 137.211 557.765 137.07 557.615C136.939 557.466 136.873 557.278 136.873 557.05C136.873 556.821 136.939 556.633 137.07 556.484C137.211 556.334 137.421 556.26 137.702 556.26C137.983 556.26 138.189 556.334 138.321 556.484C138.461 556.633 138.531 556.821 138.531 557.05C138.531 557.278 138.461 557.466 138.321 557.615C138.189 557.765 137.983 557.839 137.702 557.839ZM144.068 566.237C143.462 566.237 142.936 566.132 142.488 565.921C142.05 565.71 141.685 565.43 141.396 565.079C141.106 564.719 140.887 564.324 140.738 563.894C140.597 563.464 140.527 563.034 140.527 562.604V562.367C140.527 561.92 140.597 561.481 140.738 561.051C140.887 560.621 141.106 560.235 141.396 559.893C141.694 559.542 142.063 559.261 142.501 559.05C142.94 558.84 143.454 558.734 144.041 558.734C144.629 558.734 145.156 558.844 145.621 559.063C146.095 559.283 146.472 559.594 146.753 559.998C147.042 560.393 147.205 560.862 147.24 561.406H146.029C145.968 560.968 145.766 560.603 145.424 560.314C145.081 560.015 144.621 559.866 144.041 559.866C143.541 559.866 143.124 559.98 142.791 560.208C142.458 560.437 142.207 560.748 142.041 561.143C141.874 561.538 141.791 561.985 141.791 562.486C141.791 562.968 141.874 563.411 142.041 563.815C142.207 564.21 142.458 564.526 142.791 564.763C143.133 564.991 143.559 565.105 144.068 565.105C144.463 565.105 144.805 565.035 145.094 564.894C145.384 564.754 145.617 564.565 145.792 564.328C145.968 564.091 146.073 563.824 146.108 563.525H147.319C147.293 564.078 147.13 564.557 146.832 564.96C146.542 565.364 146.156 565.68 145.674 565.908C145.2 566.127 144.664 566.237 144.068 566.237ZM149.378 566V558.971H150.642V566H149.378ZM148.299 559.972V558.971H150.642V559.972H148.299ZM149.733 557.839C149.453 557.839 149.242 557.765 149.102 557.615C148.97 557.466 148.904 557.278 148.904 557.05C148.904 556.821 148.97 556.633 149.102 556.484C149.242 556.334 149.453 556.26 149.733 556.26C150.014 556.26 150.221 556.334 150.352 556.484C150.493 556.633 150.563 556.821 150.563 557.05C150.563 557.278 150.493 557.466 150.352 557.615C150.221 557.765 150.014 557.839 149.733 557.839ZM157.336 566V563.894H157.126V561.459C157.126 560.976 156.999 560.612 156.744 560.366C156.498 560.121 156.134 559.998 155.652 559.998C155.38 559.998 155.099 560.002 154.809 560.011C154.52 560.02 154.243 560.029 153.98 560.037C153.717 560.046 153.489 560.059 153.295 560.077V558.971C153.489 558.954 153.69 558.941 153.901 558.932C154.12 558.914 154.344 558.905 154.572 558.905C154.8 558.897 155.02 558.892 155.23 558.892C155.95 558.892 156.538 558.98 156.994 559.155C157.45 559.322 157.788 559.599 158.008 559.985C158.227 560.371 158.337 560.893 158.337 561.551V566H157.336ZM155.033 566.184C154.506 566.184 154.05 566.097 153.664 565.921C153.287 565.737 152.993 565.474 152.782 565.131C152.58 564.789 152.479 564.377 152.479 563.894C152.479 563.394 152.589 562.977 152.808 562.644C153.037 562.31 153.366 562.06 153.796 561.893C154.226 561.718 154.743 561.63 155.349 561.63H157.257V562.578H155.296C154.787 562.578 154.397 562.701 154.125 562.946C153.853 563.192 153.717 563.508 153.717 563.894C153.717 564.28 153.853 564.592 154.125 564.829C154.397 565.065 154.787 565.184 155.296 565.184C155.595 565.184 155.88 565.131 156.152 565.026C156.424 564.912 156.648 564.728 156.823 564.473C157.007 564.21 157.108 563.85 157.126 563.394L157.468 563.894C157.424 564.394 157.301 564.815 157.099 565.158C156.906 565.491 156.634 565.746 156.283 565.921C155.941 566.097 155.524 566.184 155.033 566.184ZM160.735 566V556.391H161.998V566H160.735ZM159.761 557.392V556.391H161.998V557.392H159.761Z" fill="white"/>
<path d="M478.422 562.657V561.525H480.567C481.024 561.525 481.401 561.437 481.699 561.262C481.998 561.077 482.221 560.832 482.371 560.524C482.529 560.217 482.608 559.875 482.608 559.498C482.608 559.112 482.529 558.765 482.371 558.458C482.221 558.151 481.998 557.909 481.699 557.734C481.401 557.558 481.024 557.471 480.567 557.471H478.422V556.339H480.33C481.12 556.339 481.778 556.466 482.305 556.72C482.84 556.966 483.244 557.317 483.516 557.773C483.788 558.23 483.924 558.769 483.924 559.392V559.603C483.924 560.217 483.788 560.757 483.516 561.222C483.244 561.678 482.84 562.034 482.305 562.288C481.778 562.534 481.12 562.657 480.33 562.657H478.422ZM477.395 566V556.339H478.685V566H477.395ZM489.805 566V563.894H489.594V561.459C489.594 560.976 489.467 560.612 489.212 560.366C488.967 560.121 488.603 559.998 488.12 559.998C487.848 559.998 487.567 560.002 487.277 560.011C486.988 560.02 486.711 560.029 486.448 560.037C486.185 560.046 485.957 560.059 485.764 560.077V558.971C485.957 558.954 486.159 558.941 486.369 558.932C486.589 558.914 486.812 558.905 487.041 558.905C487.269 558.897 487.488 558.892 487.699 558.892C488.418 558.892 489.006 558.98 489.462 559.155C489.919 559.322 490.257 559.599 490.476 559.985C490.695 560.371 490.805 560.893 490.805 561.551V566H489.805ZM487.501 566.184C486.975 566.184 486.518 566.097 486.132 565.921C485.755 565.737 485.461 565.474 485.25 565.131C485.049 564.789 484.948 564.377 484.948 563.894C484.948 563.394 485.057 562.977 485.277 562.644C485.505 562.31 485.834 562.06 486.264 561.893C486.694 561.718 487.212 561.63 487.817 561.63H489.726V562.578H487.764C487.256 562.578 486.865 562.701 486.593 562.946C486.321 563.192 486.185 563.508 486.185 563.894C486.185 564.28 486.321 564.592 486.593 564.829C486.865 565.065 487.256 565.184 487.764 565.184C488.063 565.184 488.348 565.131 488.62 565.026C488.892 564.912 489.116 564.728 489.291 564.473C489.476 564.21 489.577 563.85 489.594 563.394L489.936 563.894C489.892 564.394 489.77 564.815 489.568 565.158C489.375 565.491 489.103 565.746 488.752 565.921C488.409 566.097 487.993 566.184 487.501 566.184ZM493.124 566V558.971H494.125V561.867H494.072C494.072 560.84 494.296 560.09 494.743 559.616C495.199 559.134 495.88 558.892 496.783 558.892H497.02V560.024H496.573C495.871 560.024 495.331 560.213 494.954 560.59C494.576 560.959 494.388 561.494 494.388 562.196V566H493.124ZM501.434 566.237C500.819 566.237 500.289 566.132 499.841 565.921C499.393 565.71 499.029 565.434 498.749 565.092C498.468 564.741 498.257 564.35 498.117 563.92C497.985 563.49 497.919 563.052 497.919 562.604V562.367C497.919 561.911 497.985 561.468 498.117 561.038C498.257 560.608 498.468 560.222 498.749 559.879C499.029 559.528 499.385 559.252 499.815 559.05C500.253 558.84 500.767 558.734 501.355 558.734C502.118 558.734 502.746 558.901 503.237 559.234C503.737 559.559 504.106 559.98 504.343 560.498C504.588 561.016 504.711 561.569 504.711 562.157V562.723H498.472V561.775H503.79L503.5 562.288C503.5 561.788 503.421 561.358 503.263 560.998C503.105 560.63 502.868 560.345 502.552 560.143C502.237 559.941 501.837 559.84 501.355 559.84C500.855 559.84 500.438 559.954 500.104 560.182C499.78 560.41 499.534 560.722 499.367 561.117C499.209 561.512 499.13 561.968 499.13 562.486C499.13 562.986 499.209 563.438 499.367 563.841C499.534 564.236 499.788 564.552 500.131 564.789C500.473 565.017 500.907 565.131 501.434 565.131C501.986 565.131 502.434 565.008 502.776 564.763C503.127 564.517 503.338 564.232 503.408 563.907H504.593C504.496 564.39 504.303 564.807 504.014 565.158C503.724 565.509 503.36 565.776 502.921 565.961C502.482 566.145 501.986 566.237 501.434 566.237ZM509.243 566.079C508.717 566.079 508.26 566.004 507.874 565.855C507.497 565.706 507.203 565.452 506.992 565.092C506.79 564.723 506.689 564.227 506.689 563.604V556.839H507.9V563.762C507.9 564.14 508.001 564.434 508.203 564.644C508.414 564.846 508.708 564.947 509.085 564.947H510.322V566.079H509.243ZM505.479 559.919V558.971H510.322V559.919H505.479ZM515.296 566.237C514.682 566.237 514.142 566.132 513.677 565.921C513.212 565.71 512.817 565.434 512.493 565.092C512.177 564.741 511.935 564.35 511.769 563.92C511.611 563.49 511.532 563.052 511.532 562.604V562.367C511.532 561.92 511.615 561.481 511.782 561.051C511.948 560.612 512.194 560.222 512.519 559.879C512.844 559.528 513.238 559.252 513.703 559.05C514.169 558.84 514.699 558.734 515.296 558.734C515.893 558.734 516.424 558.84 516.889 559.05C517.354 559.252 517.749 559.528 518.073 559.879C518.398 560.222 518.644 560.612 518.811 561.051C518.977 561.481 519.061 561.92 519.061 562.367V562.604C519.061 563.052 518.977 563.49 518.811 563.92C518.653 564.35 518.411 564.741 518.087 565.092C517.771 565.434 517.38 565.71 516.915 565.921C516.45 566.132 515.91 566.237 515.296 566.237ZM515.296 565.105C515.823 565.105 516.27 564.991 516.639 564.763C517.016 564.526 517.301 564.21 517.494 563.815C517.696 563.42 517.797 562.977 517.797 562.486C517.797 561.985 517.696 561.538 517.494 561.143C517.292 560.748 517.003 560.437 516.626 560.208C516.257 559.98 515.814 559.866 515.296 559.866C514.787 559.866 514.344 559.98 513.967 560.208C513.589 560.437 513.3 560.748 513.098 561.143C512.896 561.538 512.795 561.985 512.795 562.486C512.795 562.977 512.892 563.42 513.085 563.815C513.287 564.21 513.572 564.526 513.94 564.763C514.318 564.991 514.77 565.105 515.296 565.105ZM529.805 566L525.844 561.775C525.44 561.336 525.124 560.959 524.896 560.643C524.676 560.327 524.518 560.029 524.422 559.748C524.334 559.467 524.29 559.164 524.29 558.84C524.29 558.269 524.396 557.795 524.606 557.418C524.826 557.041 525.168 556.76 525.633 556.576C526.098 556.383 526.699 556.286 527.436 556.286C527.726 556.286 528.05 556.299 528.41 556.326C528.77 556.352 529.09 556.383 529.371 556.418V557.523C529.196 557.506 528.967 557.488 528.687 557.471C528.406 557.444 528.129 557.427 527.857 557.418C527.585 557.4 527.362 557.392 527.186 557.392C526.563 557.392 526.124 557.519 525.87 557.773C525.624 558.019 525.501 558.383 525.501 558.866C525.501 559.252 525.589 559.607 525.765 559.932C525.949 560.257 526.234 560.625 526.62 561.038L531.293 566H529.805ZM526.541 566.237C525.865 566.237 525.273 566.11 524.764 565.855C524.255 565.601 523.86 565.254 523.58 564.815C523.299 564.377 523.158 563.89 523.158 563.354V563.157C523.158 562.525 523.334 561.968 523.685 561.485C524.045 560.994 524.488 560.599 525.014 560.301L525.672 561.183C525.286 561.376 524.97 561.661 524.725 562.038C524.488 562.407 524.369 562.815 524.369 563.262C524.369 563.675 524.466 564.021 524.659 564.302C524.861 564.583 525.124 564.798 525.449 564.947C525.782 565.087 526.146 565.158 526.541 565.158C527.155 565.158 527.686 564.986 528.134 564.644C528.581 564.293 528.924 563.78 529.16 563.104C529.406 562.42 529.529 561.573 529.529 560.564H530.661C530.661 561.441 530.569 562.231 530.385 562.933C530.209 563.626 529.946 564.219 529.595 564.71C529.244 565.201 528.809 565.579 528.292 565.842C527.783 566.105 527.199 566.237 526.541 566.237ZM528.002 560.735V559.735H531.451V560.735H528.002ZM540.362 566.237C539.484 566.237 538.734 566.083 538.111 565.776C537.497 565.469 537.001 565.07 536.624 564.578C536.246 564.087 535.97 563.556 535.795 562.986C535.619 562.407 535.531 561.849 535.531 561.314V561.025C535.531 560.445 535.619 559.866 535.795 559.287C535.979 558.708 536.26 558.181 536.637 557.708C537.014 557.234 537.506 556.852 538.111 556.562C538.717 556.273 539.441 556.128 540.283 556.128C541.143 556.128 541.88 556.277 542.494 556.576C543.109 556.874 543.596 557.291 543.955 557.826C544.315 558.361 544.534 558.993 544.613 559.721H543.297C543.227 559.177 543.051 558.73 542.771 558.379C542.49 558.019 542.134 557.752 541.705 557.576C541.283 557.4 540.809 557.313 540.283 557.313C539.713 557.313 539.212 557.414 538.782 557.615C538.352 557.809 537.993 558.085 537.703 558.445C537.422 558.796 537.207 559.204 537.058 559.669C536.918 560.134 536.848 560.638 536.848 561.183C536.848 561.7 536.918 562.192 537.058 562.657C537.207 563.122 537.427 563.534 537.716 563.894C538.015 564.254 538.383 564.539 538.822 564.75C539.261 564.951 539.774 565.052 540.362 565.052C541.187 565.052 541.88 564.846 542.442 564.434C543.003 564.021 543.345 563.425 543.468 562.644H544.785C544.697 563.302 544.473 563.903 544.113 564.447C543.762 564.991 543.271 565.425 542.639 565.75C542.016 566.075 541.257 566.237 540.362 566.237ZM549.706 566.237C549.092 566.237 548.552 566.132 548.087 565.921C547.622 565.71 547.227 565.434 546.903 565.092C546.587 564.741 546.345 564.35 546.179 563.92C546.021 563.49 545.942 563.052 545.942 562.604V562.367C545.942 561.92 546.025 561.481 546.192 561.051C546.359 560.612 546.604 560.222 546.929 559.879C547.254 559.528 547.649 559.252 548.114 559.05C548.579 558.84 549.11 558.734 549.706 558.734C550.303 558.734 550.834 558.84 551.299 559.05C551.764 559.252 552.159 559.528 552.484 559.879C552.808 560.222 553.054 560.612 553.221 561.051C553.387 561.481 553.471 561.92 553.471 562.367V562.604C553.471 563.052 553.387 563.49 553.221 563.92C553.063 564.35 552.821 564.741 552.497 565.092C552.181 565.434 551.79 565.71 551.325 565.921C550.86 566.132 550.321 566.237 549.706 566.237ZM549.706 565.105C550.233 565.105 550.68 564.991 551.049 564.763C551.426 564.526 551.711 564.21 551.904 563.815C552.106 563.42 552.207 562.977 552.207 562.486C552.207 561.985 552.106 561.538 551.904 561.143C551.703 560.748 551.413 560.437 551.036 560.208C550.667 559.98 550.224 559.866 549.706 559.866C549.197 559.866 548.754 559.98 548.377 560.208C548 560.437 547.71 560.748 547.508 561.143C547.306 561.538 547.205 561.985 547.205 562.486C547.205 562.977 547.302 563.42 547.495 563.815C547.697 564.21 547.982 564.526 548.351 564.763C548.728 564.991 549.18 565.105 549.706 565.105ZM555.363 566V558.971H556.364V561.985H556.206C556.206 561.292 556.298 560.709 556.482 560.235C556.675 559.752 556.965 559.388 557.351 559.142C557.737 558.888 558.224 558.761 558.812 558.761H558.865C559.751 558.761 560.405 559.037 560.826 559.59C561.256 560.143 561.471 560.941 561.471 561.985V566H560.207V561.722C560.207 561.178 560.054 560.744 559.746 560.419C559.439 560.086 559.018 559.919 558.483 559.919C557.93 559.919 557.482 560.09 557.14 560.432C556.798 560.774 556.627 561.231 556.627 561.801V566H555.363ZM566.52 566.079C565.994 566.079 565.538 566.004 565.152 565.855C564.774 565.706 564.48 565.452 564.27 565.092C564.068 564.723 563.967 564.227 563.967 563.604V556.839H565.178V563.762C565.178 564.14 565.279 564.434 565.481 564.644C565.691 564.846 565.985 564.947 566.363 564.947H567.6V566.079H566.52ZM562.756 559.919V558.971H567.6V559.919H562.756ZM569.387 566V558.971H570.387V561.867H570.335C570.335 560.84 570.558 560.09 571.006 559.616C571.462 559.134 572.142 558.892 573.046 558.892H573.283V560.024H572.836C572.134 560.024 571.594 560.213 571.217 560.59C570.839 560.959 570.651 561.494 570.651 562.196V566H569.387ZM577.947 566.237C577.332 566.237 576.793 566.132 576.328 565.921C575.862 565.71 575.468 565.434 575.143 565.092C574.827 564.741 574.586 564.35 574.419 563.92C574.261 563.49 574.182 563.052 574.182 562.604V562.367C574.182 561.92 574.265 561.481 574.432 561.051C574.599 560.612 574.845 560.222 575.169 559.879C575.494 559.528 575.889 559.252 576.354 559.05C576.819 558.84 577.35 558.734 577.947 558.734C578.543 558.734 579.074 558.84 579.539 559.05C580.004 559.252 580.399 559.528 580.724 559.879C581.048 560.222 581.294 560.612 581.461 561.051C581.628 561.481 581.711 561.92 581.711 562.367V562.604C581.711 563.052 581.628 563.49 581.461 563.92C581.303 564.35 581.062 564.741 580.737 565.092C580.421 565.434 580.031 565.71 579.566 565.921C579.1 566.132 578.561 566.237 577.947 566.237ZM577.947 565.105C578.473 565.105 578.921 564.991 579.289 564.763C579.666 564.526 579.952 564.21 580.145 563.815C580.346 563.42 580.447 562.977 580.447 562.486C580.447 561.985 580.346 561.538 580.145 561.143C579.943 560.748 579.653 560.437 579.276 560.208C578.907 559.98 578.464 559.866 577.947 559.866C577.438 559.866 576.994 559.98 576.617 560.208C576.24 560.437 575.95 560.748 575.748 561.143C575.547 561.538 575.446 561.985 575.446 562.486C575.446 562.977 575.542 563.42 575.735 563.815C575.937 564.21 576.222 564.526 576.591 564.763C576.968 564.991 577.42 565.105 577.947 565.105ZM583.683 566V556.391H584.946V566H583.683ZM582.708 557.392V556.391H584.946V557.392H582.708ZM590.358 566.237C589.743 566.237 589.213 566.132 588.765 565.921C588.317 565.71 587.953 565.434 587.672 565.092C587.392 564.741 587.181 564.35 587.041 563.92C586.909 563.49 586.843 563.052 586.843 562.604V562.367C586.843 561.911 586.909 561.468 587.041 561.038C587.181 560.608 587.392 560.222 587.672 559.879C587.953 559.528 588.309 559.252 588.739 559.05C589.177 558.84 589.691 558.734 590.279 558.734C591.042 558.734 591.67 558.901 592.161 559.234C592.661 559.559 593.03 559.98 593.267 560.498C593.512 561.016 593.635 561.569 593.635 562.157V562.723H587.396V561.775H592.714L592.424 562.288C592.424 561.788 592.345 561.358 592.187 560.998C592.029 560.63 591.792 560.345 591.476 560.143C591.161 559.941 590.761 559.84 590.279 559.84C589.778 559.84 589.362 559.954 589.028 560.182C588.704 560.41 588.458 560.722 588.291 561.117C588.133 561.512 588.054 561.968 588.054 562.486C588.054 562.986 588.133 563.438 588.291 563.841C588.458 564.236 588.712 564.552 589.055 564.789C589.397 565.017 589.831 565.131 590.358 565.131C590.91 565.131 591.358 565.008 591.7 564.763C592.051 564.517 592.262 564.232 592.332 563.907H593.517C593.42 564.39 593.227 564.807 592.937 565.158C592.648 565.509 592.284 565.776 591.845 565.961C591.406 566.145 590.91 566.237 590.358 566.237Z" fill="url(#paint13_linear_5_289)"/>
</g>
<defs>
<filter id="filter0_d_5_289" x="898.384" y="85.1741" width="221.063" height="222.825" filterUnits="userSpaceOnUse" color-interpolation-filters="sRGB">
<feFlood flood-opacity="0" result="BackgroundImageFix"/>
<feColorMatrix in="SourceAlpha" type="matrix" values="0 0 0 0 0 0 0 0 0 0 0 0 0 0 0 0 0 0 127 0" result="hardAlpha"/>
<feOffset dy="4"/>
<feGaussianBlur stdDeviation="2"/>
<feComposite in2="hardAlpha" operator="out"/>
<feColorMatrix type="matrix" values="0 0 0 0 0 0 0 0 0 0 0 0 0 0 0 0 0 0 0.25 0"/>
<feBlend mode="normal" in2="BackgroundImageFix" result="effect1_dropShadow_5_289"/>
<feBlend mode="normal" in="SourceGraphic" in2="effect1_dropShadow_5_289" result="shape"/>
</filter>
<filter id="filter1_bd_5_289" x="729.103" y="-8.89471" width="331.754" height="331.736" filterUnits="userSpaceOnUse" color-interpolation-filters="sRGB">
<feFlood flood-opacity="0" result="BackgroundImageFix"/>
<feGaussianBlur in="BackgroundImageFix" stdDeviation="30.3493"/>
<feComposite in2="SourceAlpha" operator="in" result="effect1_backgroundBlur_5_289"/>
<feColorMatrix in="SourceAlpha" type="matrix" values="0 0 0 0 0 0 0 0 0 0 0 0 0 0 0 0 0 0 127 0" result="hardAlpha"/>
<feOffset dy="4"/>
<feGaussianBlur stdDeviation="2"/>
<feComposite in2="hardAlpha" operator="out"/>
<feColorMatrix type="matrix" values="0 0 0 0 0 0 0 0 0 0 0 0 0 0 0 0 0 0 0.25 0"/>
<feBlend mode="normal" in2="effect1_backgroundBlur_5_289" result="effect2_dropShadow_5_289"/>
<feBlend mode="normal" in="SourceGraphic" in2="effect2_dropShadow_5_289" result="shape"/>
</filter>
<filter id="filter2_b_5_289" x="128.069" y="426.069" width="407.861" height="269.861" filterUnits="userSpaceOnUse" color-interpolation-filters="sRGB">
<feFlood flood-opacity="0" result="BackgroundImageFix"/>
<feGaussianBlur in="BackgroundImageFix" stdDeviation="57.4653"/>
<feComposite in2="SourceAlpha" operator="in" result="effect1_backgroundBlur_5_289"/>
<feBlend mode="normal" in="SourceGraphic" in2="effect1_backgroundBlur_5_289" result="shape"/>
</filter>
<filter id="filter3_b_5_289" x="-59.9307" y="426.069" width="408.861" height="269.861" filterUnits="userSpaceOnUse" color-interpolation-filters="sRGB">
<feFlood flood-opacity="0" result="BackgroundImageFix"/>
<feGaussianBlur in="BackgroundImageFix" stdDeviation="57.4653"/>
<feComposite in2="SourceAlpha" operator="in" result="effect1_backgroundBlur_5_289"/>
<feBlend mode="normal" in="SourceGraphic" in2="effect1_backgroundBlur_5_289" result="shape"/>
</filter>
<filter id="filter4_b_5_289" x="315.069" y="426.069" width="408.861" height="269.861" filterUnits="userSpaceOnUse" color-interpolation-filters="sRGB">
<feFlood flood-opacity="0" result="BackgroundImageFix"/>
<feGaussianBlur in="BackgroundImageFix" stdDeviation="57.4653"/>
<feComposite in2="SourceAlpha" operator="in" result="effect1_backgroundBlur_5_289"/>
<feBlend mode="normal" in="SourceGraphic" in2="effect1_backgroundBlur_5_289" result="shape"/>
</filter>
<linearGradient id="paint0_linear_5_289" x1="250.34" y1="-104.53" x2="127.384" y2="352.295" gradientUnits="userSpaceOnUse">
<stop stop-color="#EDFCFF"/>
<stop offset="1" stop-color="#F7F7F7"/>
</linearGradient>
<linearGradient id="paint1_linear_5_289" x1="547.34" y1="622.47" x2="424.384" y2="1079.29" gradientUnits="userSpaceOnUse">
<stop stop-color="#EDFCFF"/>
<stop offset="1" stop-color="#F7F7F7"/>
</linearGradient>
<linearGradient id="paint2_linear_5_289" x1="850" y1="370.285" x2="1106.35" y2="401.047" gradientUnits="userSpaceOnUse">
<stop stop-color="#3E79E5"/>
<stop offset="1" stop-color="#01B8E3"/>
</linearGradient>
<linearGradient id="paint3_linear_5_289" x1="55" y1="394.571" x2="700" y2="394.571" gradientUnits="userSpaceOnUse">
<stop stop-color="#3E79E5"/>
<stop offset="1" stop-color="#01B8E3"/>
</linearGradient>
<linearGradient id="paint4_linear_5_289" x1="873.91" y1="130.058" x2="927.829" y2="237.895" gradientUnits="userSpaceOnUse">
<stop stop-color="white" stop-opacity="0.15"/>
<stop offset="1" stop-color="white" stop-opacity="0.12"/>
</linearGradient>
<linearGradient id="paint5_linear_5_289" x1="863.247" y1="56.736" x2="926.713" y2="257.21" gradientUnits="userSpaceOnUse">
<stop/>
<stop offset="0.0001" stop-color="white" stop-opacity="0.984375"/>
<stop offset="1" stop-color="white" stop-opacity="0.32"/>
</linearGradient>
<linearGradient id="paint6_linear_5_289" x1="832.695" y1="134.297" x2="959.971" y2="134.297" gradientUnits="userSpaceOnUse">
<stop stop-color="white"/>
<stop offset="1" stop-color="white" stop-opacity="0.36"/>
</linearGradient>
<linearGradient id="paint7_linear_5_289" x1="832.695" y1="166.511" x2="959.971" y2="166.511" gradientUnits="userSpaceOnUse">
<stop stop-color="white"/>
<stop offset="1" stop-color="white" stop-opacity="0.36"/>
</linearGradient>
<linearGradient id="paint8_linear_5_289" x1="837.404" y1="199.74" x2="911.9" y2="199.74" gradientUnits="userSpaceOnUse">
<stop stop-color="white"/>
<stop offset="1" stop-color="white" stop-opacity="0.36"/>
</linearGradient>
<linearGradient id="paint9_linear_5_289" x1="254.375" y1="562.275" x2="273.625" y2="562.275" gradientUnits="userSpaceOnUse">
<stop stop-color="#3E79E5"/>
<stop offset="1" stop-color="#01B8E3"/>
</linearGradient>
<linearGradient id="paint10_linear_5_289" x1="55" y1="560.429" x2="234" y2="560.429" gradientUnits="userSpaceOnUse">
<stop stop-color="#3E79E5"/>
<stop offset="1" stop-color="#01B8E3"/>
</linearGradient>
<linearGradient id="paint11_linear_5_289" x1="443.953" y1="562.801" x2="465.047" y2="562.801" gradientUnits="userSpaceOnUse">
<stop stop-color="#3E79E5"/>
<stop offset="1" stop-color="#01B8E3"/>
</linearGradient>
<linearGradient id="paint12_linear_5_289" x1="285" y1="561.743" x2="408" y2="561.743" gradientUnits="userSpaceOnUse">
<stop stop-color="#3E79E5"/>
<stop offset="1" stop-color="#01B8E3"/>
</linearGradient>
<linearGradient id="paint13_linear_5_289" x1="476" y1="563.8" x2="601" y2="563.8" gradientUnits="userSpaceOnUse">
<stop stop-color="#3E79E5"/>
<stop offset="1" stop-color="#01B8E3"/>
</linearGradient>
<clipPath id="clip0_5_289">
<rect width="1280" height="720" rx="10" fill="white"/>
</clipPath>
<clipPath id="clip1_5_289">
<rect width="213.04" height="214.825" fill="white" transform="translate(902.384 85.1748)"/>
</clipPath>
</defs>
</svg>
